<?xml version="1.0" standalone="no"?>
<!DOCTYPE svg PUBLIC "-//W3C//DTD SVG 1.1//EN" "http://www.w3.org/Graphics/SVG/1.1/DTD/svg11.dtd" >
<svg xmlns="http://www.w3.org/2000/svg">
<metadata>
<json>
<![CDATA[
{
	"fontFamily": "pdiconkit",
	"majorVersion": 1,
	"minorVersion": 0,
	"designer": "Angga | Dini | Desto | Naga Langit Product Designer",
	"license": "Attribution-NonCommercial-NoDerivatives 4.0 International (CC BY-NC-ND 4.0)",
	"designerURL": "http://dribbble.com/bebun_",
	"fontURL": "http://www.primesystem.id/",
	"description": "PrimeSystem Developer Icon Kit\nFont generated by IcoMoon.",
	"copyright": "Prime System Developer Indonesia",
	"licenseURL": "https://creativecommons.org/licenses/by-nc-nd/4.0/",
	"version": "Version 1.0",
	"fontId": "pdiconkit",
	"psName": "pdiconkit",
	"subFamily": "Regular",
	"fullName": "pdiconkit"
}
]]>
</json>
</metadata>
<defs>
<font id="pdiconkit" horiz-adv-x="1024">
<font-face units-per-em="1024" ascent="870.4" descent="-153.6" />
<missing-glyph horiz-adv-x="1024" />
<glyph unicode="&#x20;" horiz-adv-x="512" d="" />
<glyph unicode="&#xe900;" glyph-name="quote" data-tags="quote" d="M676.48 0c-0.475-0.025-1.030-0.039-1.589-0.039-17.673 0-32 14.327-32 32 0 3.561 0.582 6.986 1.655 10.185 9.771 24.593 15.474 53.347 15.474 83.432 0 3.215-0.065 6.415-0.194 9.598-2.545 5.624-16.305 6.904-20.465 7.224v0c-53.019 0-96 42.981-96 96v128c0 53.019 42.981 96 96 96h128c53.019 0 96-42.981 96-96v-128c0.471-4.7 0.739-10.159 0.739-15.68 0-40.646-14.545-77.894-38.714-106.824l0.215 0.264c-35.84-36.16-128-106.24-130.24-109.44-5.168-4.045-11.716-6.547-18.841-6.719zM642.88 206.4c0.775 0.026 1.687 0.041 2.602 0.041 32.618 0 60.87-18.699 74.619-45.962 4.035-11.065 6.241-23.28 6.241-36.011 0-3.941-0.211-7.832-0.623-11.663 21.481 18.076 42.601 36.316 55.401 49.116v0c12.363 17.45 19.763 39.175 19.763 62.629 0 4.883-0.321 9.691-0.942 14.404l0.060 127.446c0 17.673-14.327 32-32 32h-128c-17.673 0-32-14.327-32-32v-128c0-0.030 0-0.067 0-0.103 0-17.673 14.327-32 32-32 0.901 0 1.793 0.037 2.676 0.11zM292.48 241.6c-0.475-0.025-1.030-0.039-1.589-0.039-17.673 0-32 14.327-32 32 0 3.561 0.582 6.986 1.655 10.185 9.771 24.593 15.474 53.347 15.474 83.432 0 3.215-0.065 6.415-0.194 9.598-0.945 5.624-15.025 7.224-19.825 7.224v0c-53.019 0-96 42.981-96 96v128c0 53.019 42.981 96 96 96h128c53.019 0 96-42.981 96-96v-128c0.576-5.135 0.905-11.087 0.905-17.116 0-40.209-14.628-77.002-38.852-105.348-35.654-35.937-127.814-106.017-130.054-109.217-5.333-4.171-12.13-6.696-19.515-6.72zM258.56 448c0.683 0.020 1.487 0.031 2.293 0.031 32.866 0 61.297-18.983 74.929-46.583 4.034-11.075 6.24-23.29 6.24-36.021 0-3.941-0.211-7.832-0.623-11.663 21.481 18.076 42.601 36.316 55.401 49.116v0c12.618 17.362 20.186 39.104 20.186 62.613 0 5.116-0.358 10.149-1.051 15.074l0.065 127.433c0 17.673-14.327 32-32 32h-128c-17.673 0-32-14.327-32-32v-128c0-0.030 0-0.067 0-0.103 0-17.673 14.327-32 32-32 0.901 0 1.793 0.037 2.676 0.11z" />
<glyph unicode="&#xe901;" glyph-name="add" data-tags="add" d="M672 320c-17.673 0-32 14.327-32 32v320c0 17.673 14.327 32 32 32s32-14.327 32-32v-320c0-17.673-14.327-32-32-32zM832 480h-320c-17.673 0-32 14.327-32 32s14.327 32 32 32h320c17.673 0 32-14.327 32-32s-14.327-32-32-32zM832 0h-640c-17.673 0-32 14.327-32 32v640c0 17.673 14.327 32 32 32h224c17.673 0 32-14.327 32-32s-14.327-32-32-32h-192v-576h576v192c0 17.673 14.327 32 32 32s32-14.327 32-32v-224c0-17.673-14.327-32-32-32z" />
<glyph unicode="&#xe902;" glyph-name="article" data-tags="article" d="M832 0h-640c-17.673 0-32 14.327-32 32v640c0 17.673 14.327 32 32 32h640c17.673 0 32-14.327 32-32v-640c0-17.673-14.327-32-32-32zM224 64h576v576h-576zM384 384c-17.673 0-32 14.327-32 32v128c0 17.673 14.327 32 32 32s32-14.327 32-32v-128c0-17.673-14.327-32-32-32zM448 512h-128c-17.673 0-32 14.327-32 32s14.327 32 32 32h128c17.673 0 32-14.327 32-32s-14.327-32-32-32zM704 256h-384c-17.673 0-32 14.327-32 32s14.327 32 32 32h384c17.673 0 32-14.327 32-32s-14.327-32-32-32zM704 128h-384c-17.673 0-32 14.327-32 32s14.327 32 32 32h384c17.673 0 32-14.327 32-32s-14.327-32-32-32zM708.16 512h-136c-17.673 0-32 14.327-32 32s14.327 32 32 32h136c17.673 0 32-14.327 32-32s-14.327-32-32-32zM708.16 384h-136c-17.673 0-32 14.327-32 32s14.327 32 32 32h136c17.673 0 32-14.327 32-32s-14.327-32-32-32z" />
<glyph unicode="&#xe903;" glyph-name="bell" data-tags="bell" d="M841.28 302.72l-6.4 7.68c-31.516 37.291-55.819 81.789-70.082 130.573l-26.558 92.467c-29.326 99.037-119.489 170.059-226.24 170.059s-196.914-71.022-225.816-168.393l-26.344-91.586c-14.901-51.331-39.204-95.829-71.16-133.654l-5.96-7.146c-14.237-16.89-22.889-38.894-22.889-62.918 0-42.681 27.307-78.984 65.403-92.392 44.76-16.164 96.956-29.441 150.807-37.691 16.666-63.091 70.87-109.692 135.959-109.692s119.292 46.601 131.067 108.258c58.746 9.687 110.942 22.963 160.99 40.769 32.675 11.834 59.864 48.073 59.864 90.661 0 24.064-8.68 46.1-23.081 63.149zM512 64c-26.585 0.074-49.649 15.076-61.258 37.062 20.298 0.378 40.458-2.182 61.258-2.182s40.96 0 61.44 2.56c-11.791-22.364-34.855-37.366-61.43-37.44zM800 231.040c-2.993-10.993-11.090-19.618-21.522-23.287-79.184-28.444-170.276-44.845-265.198-44.845s-186.014 16.401-270.595 46.523c-6.088 1.251-15.223 10.068-18.623 21.369-1.151 3.325-1.781 6.882-1.781 10.587 0 8.362 3.207 15.975 8.459 21.676l6.38 7.658c36.761 43.416 65.212 95.158 82.112 151.879l26.688 92.921c21.313 72.193 87.009 123.98 164.8 123.98s143.487-51.787 164.492-122.767l28.788-91.133c17.551-60.34 46.14-112.644 83.717-157.108l5.883-7.052c4.86-5.582 7.823-12.927 7.823-20.964 0-3.368-0.52-6.614-1.485-9.663z" />
<glyph unicode="&#xe904;" glyph-name="browser" data-tags="browser" d="M832 704h-640c-17.673 0-32-14.327-32-32v-640c0-17.673 14.327-32 32-32h640c17.673 0 32 14.327 32 32v640c0 17.673-14.327 32-32 32zM800 64h-576v384h576zM800 512h-576v128h576zM320 576c0-17.673-14.327-32-32-32s-32 14.327-32 32c0 17.673 14.327 32 32 32s32-14.327 32-32zM416 576c0-17.673-14.327-32-32-32s-32 14.327-32 32c0 17.673 14.327 32 32 32s32-14.327 32-32zM512 576c0-17.673-14.327-32-32-32s-32 14.327-32 32c0 17.673 14.327 32 32 32s32-14.327 32-32z" />
<glyph unicode="&#xe905;" glyph-name="bulb" data-tags="bulb" d="M768 473.6c-13.231 130.141-122.236 230.841-254.761 230.841-141.385 0-256-114.615-256-256 0-80.058 36.749-151.532 94.298-198.475l0.463-25.966c0.444-27.845 12.676-52.748 31.91-70.001l0.090-25.999c0-70.692 57.308-128 128-128s128 57.308 128 128v24.64c19.631 17.613 31.941 43.043 32 71.349v24.331c59.421 47.302 97.175 119.63 97.175 200.775 0 8.629-0.427 17.158-1.261 25.568zM576 128c0-35.346-28.654-64-64-64s-64 28.654-64 64h128zM620.48 290.56c-8.347-5.845-13.742-15.411-13.76-26.237v-40.323c0-17.673-14.327-32-32-32h-126.72c-17.673 0-32 14.327-32 32v40.32c-0.018 10.829-5.413 20.395-13.657 26.172-50.007 35.227-82.209 92.607-82.209 157.508 0 105.992 85.885 191.924 191.859 192 3.402 0.208 7.371 0.327 11.367 0.327s7.965-0.119 11.903-0.352c89.051-11.399 159.011-82.452 168.662-171.594 0.741-6.826 1.121-13.742 1.121-20.748 0-65.056-32.737-122.466-82.637-156.654zM512 576c-17.673 0-32-14.327-32-32s14.327-32 32-32c35.346 0 64-28.654 64-64 0-17.673 14.327-32 32-32s32 14.327 32 32c0 70.692-57.308 128-128 128z" />
<glyph unicode="&#xe906;" glyph-name="calendar" data-tags="calendar" d="M800 608h-64v64c0 17.673-14.327 32-32 32s-32-14.327-32-32v-64h-320v64c0 17.673-14.327 32-32 32s-32-14.327-32-32v-64h-64c-17.673 0-32-14.327-32-32v-544c0-17.673 14.327-32 32-32h576c17.673 0 32 14.327 32 32v544c0 17.673-14.327 32-32 32zM256 64v320h512v-320z" />
<glyph unicode="&#xe907;" glyph-name="calendar-2" data-tags="calendar-2" d="M800 0h-576c-17.673 0-32 14.327-32 32v544c0 17.673 14.327 32 32 32h576c17.673 0 32-14.327 32-32v-544c0-17.673-14.327-32-32-32zM256 64h512v480h-512zM224 576h576v-160h-576v160zM800 384h-576c-17.673 0-32 14.327-32 32v160c0 17.673 14.327 32 32 32h576c17.673 0 32-14.327 32-32v-160c0-17.673-14.327-32-32-32zM256 448h512v96h-512zM320 544c-17.673 0-32 14.327-32 32v96c0 17.673 14.327 32 32 32s32-14.327 32-32v-96c0-17.673-14.327-32-32-32zM704 544c-17.673 0-32 14.327-32 32v96c0 17.673 14.327 32 32 32s32-14.327 32-32v-96c0-17.673-14.327-32-32-32zM672 256h-320c-17.673 0-32 14.327-32 32s14.327 32 32 32h320c17.673 0 32-14.327 32-32s-14.327-32-32-32zM672 128h-320c-17.673 0-32 14.327-32 32s14.327 32 32 32h320c17.673 0 32-14.327 32-32s-14.327-32-32-32z" />
<glyph unicode="&#xe908;" glyph-name="chart" data-tags="chart" d="M832 512c-17.673 0-32 14.327-32 32v87.040l-88.32-23.040c-2.307-0.577-4.955-0.909-7.68-0.909-18.175 0-32.909 14.734-32.909 32.909 0 15.45 10.646 28.413 25.003 31.953l128.226 32.047c2.31 0.596 4.962 0.939 7.694 0.939 17.673 0 32-14.327 32-32 0-0.33-0.005-0.659-0.015-0.987l0.001-127.952c0-17.673-14.327-32-32-32zM832 0h-640c-17.673 0-32 14.327-32 32v640c0 17.673 14.327 32 32 32s32-14.327 32-32v-608h608c17.673 0 32-14.327 32-32s-14.327-32-32-32zM320 274.88c-17.582 0.119-31.79 14.4-31.79 31.999 0 7.669 2.697 14.707 7.195 20.218l142.034 173.062c5.911 7.084 14.743 11.559 24.62 11.559 4.272 0 8.348-0.837 12.074-2.356l152.746-61.363 179.52 243.2c5.9 7.807 15.167 12.8 25.6 12.8 17.673 0 32-14.327 32-32 0-7.24-2.404-13.919-6.458-19.28l-193.862-262c-5.899-7.821-15.174-12.824-25.618-12.824-4.257 0-8.321 0.831-12.036 2.341l-154.026 61.363-128-154.88c-5.736-7.038-14.313-11.571-23.956-11.839zM320 106.56c-17.673 0-32 14.327-32 32v40.32c0 17.673 14.327 32 32 32s32-14.327 32-32v-40.32c0-17.673-14.327-32-32-32zM480 106.56c-17.673 0-32 14.327-32 32v168.32c0 17.673 14.327 32 32 32s32-14.327 32-32v-168.32c0-17.673-14.327-32-32-32zM640 106.56c-17.673 0-32 14.327-32 32v136.32c0 17.673 14.327 32 32 32s32-14.327 32-32v-136.32c0-17.673-14.327-32-32-32zM800 106.56c-17.673 0-32 14.327-32 32v232.32c0 17.673 14.327 32 32 32s32-14.327 32-32v-232.32c0-17.673-14.327-32-32-32z" />
<glyph unicode="&#xe909;" glyph-name="desktop" data-tags="desktop" d="M832 160h-640c-17.673 0-32 14.327-32 32v480c0 17.673 14.327 32 32 32h640c17.673 0 32-14.327 32-32v-480c0-17.673-14.327-32-32-32zM224 224h576v416h-576zM592 0h-160c-0.193-0.004-0.42-0.007-0.648-0.007-17.673 0-32 14.327-32 32 0 2.268 0.236 4.481 0.685 6.615l31.963 159.792c3.079 14.714 15.945 25.607 31.355 25.607 0.227 0 0.453-0.002 0.679-0.007l95.966 0.001c0.192 0.004 0.418 0.007 0.645 0.007 15.41 0 28.276-10.893 31.318-25.398l32.037-160.208c0.412-1.926 0.648-4.139 0.648-6.407 0-17.673-14.327-32-32-32-0.228 0-0.455 0.002-0.682 0.007zM471.040 64h81.92l-19.2 96h-43.52zM640 0h-256c-17.673 0-32 14.327-32 32s14.327 32 32 32h256c17.673 0 32-14.327 32-32s-14.327-32-32-32zM832 288h-640c-17.673 0-32 14.327-32 32s14.327 32 32 32h640c17.673 0 32-14.327 32-32s-14.327-32-32-32z" />
<glyph unicode="&#xe90a;" glyph-name="diskette" data-tags="diskette" d="M854.72 598.72l-96 96c-5.782 5.736-13.744 9.281-22.535 9.281-0.065 0-0.13 0-0.195-0.001h-543.99c-17.673 0-32-14.327-32-32v-640c0-17.673 14.327-32 32-32h640c17.673 0 32 14.327 32 32v544c0 0.055 0.001 0.12 0.001 0.185 0 8.791-3.545 16.753-9.283 22.537zM608 640v-96h-160v96zM384 640v-96h-32v96zM352 64v320h320v-320zM800 64h-64v352c0 17.673-14.327 32-32 32h-384c-17.673 0-32-14.327-32-32v-352h-64v576h64v-128c0-17.673 14.327-32 32-32h320c17.673 0 32 14.327 32 32v128h50.88l77.12-77.12zM608 256h-192c-17.673 0-32-14.327-32-32s14.327-32 32-32h192c17.673 0 32 14.327 32 32s-14.327 32-32 32zM608 352h-192c-17.673 0-32-14.327-32-32s14.327-32 32-32h192c17.673 0 32 14.327 32 32s-14.327 32-32 32zM608 160h-192c-17.673 0-32-14.327-32-32s14.327-32 32-32h192c17.673 0 32 14.327 32 32s-14.327 32-32 32z" />
<glyph unicode="&#xe90b;" glyph-name="doc-1" data-tags="doc-1" d="M768 704h-512c-17.673 0-32-14.327-32-32v-640c0-17.673 14.327-32 32-32h512c17.673 0 32 14.327 32 32v640c0 17.673-14.327 32-32 32zM736 64h-448v576h448zM352 244.8h320c17.673 0 32 14.327 32 32s-14.327 32-32 32h-320c-17.673 0-32-14.327-32-32s14.327-32 32-32zM352 372.8h320c17.673 0 32 14.327 32 32s-14.327 32-32 32h-320c-17.673 0-32-14.327-32-32s14.327-32 32-32zM352 500.8h128c17.673 0 32 14.327 32 32s-14.327 32-32 32h-128c-17.673 0-32-14.327-32-32s14.327-32 32-32zM352 128h320c17.673 0 32 14.327 32 32s-14.327 32-32 32h-320c-17.673 0-32-14.327-32-32s14.327-32 32-32z" />
<glyph unicode="&#xe90c;" glyph-name="doc-2" data-tags="doc-2" d="M768 704h-512c-17.673 0-32-14.327-32-32v-640c0-17.673 14.327-32 32-32h512c17.673 0 32 14.327 32 32v640c0 17.673-14.327 32-32 32zM736 64h-448v576h448zM384 224h256c17.673 0 32 14.327 32 32s-14.327 32-32 32h-256c-17.673 0-32-14.327-32-32s14.327-32 32-32zM384 107.2h256c17.673 0 32 14.327 32 32s-14.327 32-32 32h-256c-17.673 0-32-14.327-32-32s14.327-32 32-32zM384 352h256c17.673 0 32 14.327 32 32v192c0 17.673-14.327 32-32 32h-256c-17.673 0-32-14.327-32-32v-192c0-17.673 14.327-32 32-32zM416 544h192v-128h-192z" />
<glyph unicode="&#xe90d;" glyph-name="dropcolor" data-tags="dropcolor" d="M418.24 59.84c-0.055 0-0.12-0.001-0.185-0.001-8.791 0-16.753 3.545-22.537 9.283l-226.238 226.238c-5.803 5.793-9.393 13.801-9.393 22.647 0 7.847 2.825 15.034 7.512 20.601l248.6 294.352c5.629 6.567 13.803 10.813 22.975 11.198 0.76 0.060 1.57 0.093 2.387 0.093 8.538 0 16.237-3.596 21.664-9.356l272.974-271.695c5.796-5.792 9.381-13.795 9.381-22.636 0-9.759-4.368-18.497-11.256-24.367l-295.085-248.997c-5.497-4.581-12.634-7.362-20.42-7.362-0.134 0-0.267 0.001-0.4 0.002zM235.52 320l184.64-184.64 245.12 207.36-222.4 222.4zM784 64c-44.183 0-80 35.817-80 80 0 16.96 16.96 144 80 144s80-128 80-144c0-44.183-35.817-80-80-80zM784 209.28c-7.948-18.697-13.607-40.373-15.921-63.040-0.079-9.796 7.084-16.96 15.921-16.96s16 7.163 16 16c-2.393 23.627-8.052 45.303-16.556 65.488z" />
<glyph unicode="&#xe90e;" glyph-name="edit" data-tags="edit" d="M512 704c-0.128 0-0.279 0-0.43 0-89.773 0-171.632-33.884-233.486-89.56l0.316 57.56c0 17.673-14.327 32-32 32s-32-14.327-32-32v-106.88c0-33.579 27.221-60.8 60.8-60.8h106.88c17.673 0 32 14.327 32 32s-14.327 32-32 32h-59.84c50.45 44.51 117.117 71.68 190.13 71.68 159.058 0 288-128.942 288-288s-128.942-288-288-288c-0.13 0-0.26 0-0.391 0-17.653 0-31.98-14.327-31.98-32s14.327-32 32-32c194.404 0 352 157.596 352 352s-157.596 352-352 352zM653.44 339.2c11.627 17.215 18.56 38.431 18.56 61.267 0 0.061 0 0.122 0 0.183v-0.009c0.001 0.166 0.001 0.363 0.001 0.56 0 61.149-49.571 110.72-110.72 110.72-28.007 0-53.586-10.399-73.085-27.547-1.796-1.813-4.356-3.093-6.276-5.013l-267.84-267.84c-3.676-3.729-6.445-8.362-7.944-13.534l-46.136-157.346c-0.583-2.063-0.918-4.432-0.918-6.88s0.335-4.817 0.962-7.065-0.044-1.735-0.044-2.695c0.508-1.648 1.051-3.026 1.683-4.354-0.114-0.332-0.131-0.947-0.131-1.566s0.018-1.234 0.052-1.845l2.236-2.795c0.93-1.446 1.878-2.699 2.911-3.876l-0.031 0.036c2.383-2.161 5.128-3.984 8.121-5.358l2.439-0.082c4.234-2.449 9.28-3.969 14.665-4.158 1.353-0.188 2.852-0.294 4.375-0.294s3.022 0.106 4.489 0.312l-0.169-0.019h2.88l79.36 22.080h2.56l72 20.48c5.398 1.555 10.031 4.324 13.764 8.004l268.796 271.676c4.869 5.050 9.296 10.595 13.176 16.53zM604.8 384c-1.239-2.466-2.515-4.561-3.938-6.544-1.543-2.894-3.347-5.515-5.396-7.921l-66.186 66.305c2.341 1.995 4.962 3.799 7.759 5.32 2.079 1.445 4.175 2.721 6.367 3.834 3.373 1.106 6.973 1.79 10.692 2.038 1.147 0.083 2.319 0.126 3.502 0.126s2.355-0.043 3.515-0.128c4.060-0.288 7.983-1.085 11.701-2.328 0.573 0.161 1.634 0.198 2.704 0.198s2.131-0.036 3.182-0.108c11.543-4.809 20.641-13.907 25.345-25.284 0.17-1.169 0.203-2.175 0.203-3.188s-0.033-2.019-0.097-3.016c1.156-3.247 1.954-7.17 2.239-11.235 0.084-1.155 0.127-2.327 0.127-3.509s-0.043-2.355-0.128-3.515c-0.076-3.862-0.654-7.708-1.668-11.373zM332.16 105.6l-34.56-9.6c-8.835 17.96-23.306 32.018-41.071 40.104l9.711 35.736 218.56 218.56 66.88-66.88z" />
<glyph unicode="&#xe90f;" glyph-name="expand" data-tags="expand" d="M832 352c-17.673 0-32-14.327-32-32v-256h-576v576h288c17.673 0 32 14.327 32 32s-14.327 32-32 32h-320c-17.673 0-32-14.327-32-32v-640c0-17.673 14.327-32 32-32h640c17.673 0 32 14.327 32 32v288c0 17.673-14.327 32-32 32zM864 544v0c0 0.067 0 0.145 0 0.224 0 19.288-7.828 36.747-20.479 49.375l-101.121 101.121c-5.559 4.783-12.847 7.695-20.815 7.695-17.673 0-32-14.327-32-32 0-7.968 2.912-15.255 7.73-20.857l73.245-73.558h-66.56c-141.385 0-256-114.615-256-256 0-17.673 14.327-32 32-32s32 14.327 32 32c0 106.039 85.961 192 192 192h66.56l-73.28-73.28c-6.865-5.904-11.185-14.6-11.185-24.305 0-17.673 14.327-32 32-32 9.705 0 18.401 4.321 24.27 11.143l100.835 100.842c12.822 12.638 20.773 30.188 20.8 49.595v0.005z" />
<glyph unicode="&#xe910;" glyph-name="filter" data-tags="filter" d="M192 544h96v-48c0-17.673 14.327-32 32-32s32 14.327 32 32v48h480c17.673 0 32 14.327 32 32s-14.327 32-32 32h-480v48c0 17.673-14.327 32-32 32s-32-14.327-32-32v-48h-96c-17.673 0-32-14.327-32-32s14.327-32 32-32zM832 384h-96v48c0 17.673-14.327 32-32 32s-32-14.327-32-32v-48h-480c-17.673 0-32-14.327-32-32s14.327-32 32-32h480v-48c0-17.673 14.327-32 32-32s32 14.327 32 32v48h96c17.673 0 32 14.327 32 32s-14.327 32-32 32zM832 160h-320v48c0 17.673-14.327 32-32 32s-32-14.327-32-32v-48h-256c-17.673 0-32-14.327-32-32s14.327-32 32-32h256v-48c0-17.673 14.327-32 32-32s32 14.327 32 32v48h320c17.673 0 32 14.327 32 32s-14.327 32-32 32z" />
<glyph unicode="&#xe911;" glyph-name="folder" data-tags="folder" d="M864 544c0 17.673-14.327 32-32 32h-303.040l-54.4 81.6c-5.778 8.682-15.502 14.341-26.551 14.4h-256.009c-17.673 0-32-14.327-32-32v-576c0-17.673 14.327-32 32-32h640c17.673 0 32 14.327 32 32zM430.72 608l54.4-81.6c5.808-8.727 15.604-14.4 26.726-14.4 0.054 0 0.109 0 0.163 0h287.992v-32h-576v128zM224 96v320h576v-320z" />
<glyph unicode="&#xe912;" glyph-name="footer" data-tags="footer" d="M832 0h-640c-17.673 0-32 14.327-32 32v640c0 17.673 14.327 32 32 32h640c17.673 0 32-14.327 32-32v-640c0-17.673-14.327-32-32-32zM224 64h576v576h-576zM832 192h-640c-17.673 0-32 14.327-32 32s14.327 32 32 32h640c17.673 0 32-14.327 32-32s-14.327-32-32-32zM832 32c-0.055 0-0.12-0.001-0.185-0.001-8.791 0-16.753 3.545-22.537 9.283l-156.798 157.118c-4.783 5.559-7.695 12.847-7.695 20.815 0 17.673 14.327 32 32 32 7.968 0 15.255-2.912 20.857-7.73l156.118-156.125c6.242-5.854 10.13-14.153 10.13-23.36 0-17.634-14.264-31.937-31.884-32zM704 0c-0.055 0-0.12-0.001-0.185-0.001-8.791 0-16.753 3.545-22.537 9.283l-188.798 189.118c-4.783 5.559-7.695 12.847-7.695 20.815 0 17.673 14.327 32 32 32 7.968 0 15.255-2.912 20.857-7.73l189.078-189.085c5.656-5.767 9.148-13.676 9.148-22.4 0-17.627-14.252-31.925-31.861-32zM544 0c-0.055 0-0.12-0.001-0.185-0.001-8.791 0-16.753 3.545-22.537 9.283l-188.798 189.118c-4.783 5.559-7.695 12.847-7.695 20.815 0 17.673 14.327 32 32 32 7.968 0 15.255-2.912 20.857-7.73l189.078-189.085c5.656-5.767 9.148-13.676 9.148-22.4 0-17.627-14.252-31.925-31.861-32zM384 0c-0.055 0-0.12-0.001-0.185-0.001-8.791 0-16.753 3.545-22.537 9.283l-159.998 159.998c-4.783 5.559-7.695 12.847-7.695 20.815 0 17.673 14.327 32 32 32 7.968 0 15.255-2.912 20.857-7.73l159.958-159.965c5.658-5.768 9.151-13.678 9.151-22.403 0-17.515-14.072-31.744-31.527-31.997z" />
<glyph unicode="&#xe913;" glyph-name="gear" data-tags="gear" d="M832 448h-48.96c-4.033 11.409-7.922 20.602-12.263 29.534l35.623 34.466c5.846 5.8 9.466 13.837 9.466 22.72s-3.619 16.92-9.463 22.718l-90.562 88.642c-5.784 5.751-13.757 9.305-22.56 9.305s-16.776-3.555-22.562-9.307l-34.878-34.558c-7.238 3.598-16.431 7.487-25.854 10.893l-1.986 49.587c0 17.673-14.327 32-32 32h-128c-17.673 0-32-14.327-32-32v-48.96c-11.409-4.033-20.602-7.922-29.534-12.263l-34.466 35.303c-5.784 5.751-13.757 9.305-22.56 9.305s-16.776-3.555-22.562-9.307l-89.278-90.238c-5.38-5.712-8.687-13.43-8.687-21.92s3.306-16.208 8.702-21.936l34.865-34.544c-3.598-7.238-7.487-16.431-10.893-25.854l-49.587-1.986c-17.673 0-32-14.327-32-32v-128c0-17.673 14.327-32 32-32h48.96c4.033-11.409 7.922-20.602 12.263-29.534l-35.623-36.066c-5.846-5.8-9.466-13.837-9.466-22.72s3.619-16.92 9.463-22.718l90.562-88.962c5.782-5.736 13.744-9.281 22.535-9.281 0.065 0 0.13 0 0.195 0.001h-0.010c8.274 0.386 15.67 3.858 21.121 9.281l34.559 34.879c7.238-3.598 16.431-7.487 25.854-10.893l1.986-49.587c0-17.673 14.327-32 32-32h128c17.673 0 32 14.327 32 32v48.96c11.409 4.033 20.602 7.922 29.534 12.263l36.066-35.623c5.782-5.736 13.744-9.281 22.535-9.281 0.065 0 0.13 0 0.195 0.001h-0.010c0.055 0 0.12-0.001 0.185-0.001 8.791 0 16.753 3.545 22.537 9.283l90.558 90.558c5.846 5.8 9.466 13.837 9.466 22.72s-3.619 16.92-9.463 22.718l-34.882 34.562c3.598 7.238 7.487 16.431 10.893 25.854l47.987 1.986c17.673 0 32 14.327 32 32v128c0 17.673-14.327 32-32 32zM800 320h-48.32l-6.080-2.24-4.48-3.2c-3.375-2.276-6.084-5.293-7.937-8.828-1.145-1.872-2.116-3.879-2.873-5.989s-0.070-0.223-0.070-2.463c-6.349-22.501-15.31-42.173-26.773-60.091s0.533 0.891 0.533-1.349c-1.54-3.448-2.667-7.447-3.18-11.636-0.090-0.956-0.13-1.831-0.13-2.714 0-5.584 1.589-10.797 4.34-15.211 1.012-1.82 2.178-3.496 3.488-5.045l-0.039-2.193 28.48-28.16-45.12-45.12-28.16 28.48h-2.24c-1.587 1.281-3.369 2.451-5.263 3.436l-4.017 2.324h-17.92l-6.080-2.24h-2.24c-16.671-10.050-35.946-18.27-56.372-23.653l-3.788-0.347-5.76-2.88-4.8-3.2c-4.503-3.829-7.781-8.977-9.239-14.844-0.143-1.156-0.202-2.269-0.202-3.396s0.058-2.24 0.172-3.337-0.012 0.137-0.012-2.103v-40h-65.92v40s0 0 0 2.24c-0.553 4.398-1.678 8.395-3.309 12.12-2.012 3.375-4.451 6.527-7.25 9.319l-4.801 3.201-5.76 2.88h-2.24c-22.267 6.412-41.717 15.365-59.44 26.77l-1.36-0.53-6.080 2.24h-17.92l-5.44-2.56c-2.071-1.069-3.853-2.238-5.501-3.568l-2.179 0.048-28.16-28.48-44.8 43.2 28.48 28.16v2.24c1.271 1.502 2.437 3.178 3.437 4.959 2.343 4.435 3.67 9.503 3.67 14.881s-1.327 10.446-3.671 14.895 0.084-0.175 0.084 2.065c-10.050 16.671-18.27 35.946-23.653 56.372s-0.347 1.548-0.347 3.788c-0.827 2.333-1.798 4.34-2.959 6.217-1.837 3.53-4.546 6.546-7.836 8.768l-4.565 3.254-6.080 2.24h-48.32v65.28h40c4.155 0.033 8.11 0.852 11.735 2.317l3.305 1.843c2.311 1.229 4.304 2.61 6.118 4.192l2.842 3.168c1.415 1.683 2.69 3.57 3.756 5.586 0.736 1.326 1.382 2.696 1.93 4.115s0.074 0.219 0.074 2.779c6.475 22.033 15.42 41.261 26.767 58.788s-0.527-0.868-0.527 1.372c1.54 3.448 2.667 7.447 3.18 11.636 0.090 0.956 0.13 1.831 0.13 2.714 0 5.584-1.589 10.797-4.34 15.211-1.012 1.82-2.178 3.496-3.488 5.045l0.039 2.193-28.48 28.16 45.12 45.12 28.16-28.16c2.63-2.475 5.7-4.52 9.074-6l2.766-0.080c3.136-1.175 6.759-1.876 10.541-1.92h0.019c3.8 0.044 7.424 0.745 10.781 1.992l2.339-0.072h2.88c16.671 10.050 35.946 18.27 56.372 23.653l3.788 0.347 5.76 2.88 4.8 3.2c4.503 3.829 7.781 8.977 9.239 14.844 0.143 1.156 0.202 2.269 0.202 3.396s-0.058 2.24-0.172 3.337 0.012-0.137 0.012 2.103v42.24h64v-40s0 0 0-2.24c0.553-4.398 1.678-8.395 3.309-12.12 2.012-3.375 4.451-6.527 7.25-9.319l4.801-3.201 5.76-2.88h2.24c21.974-5.73 41.249-13.95 58.926-24.56l1.874 0.56h2.56c3.136-1.175 6.759-1.876 10.541-1.92h0.019c2.158-0.519 4.636-0.817 7.184-0.817 1.985 0 3.928 0.181 5.813 0.527l2.364-0.030c3.58 1.56 6.65 3.605 9.296 6.095l-0.016-0.015 28.16 28.16 45.12-45.12-28.48-28.16v-2.24c-1.271-1.502-2.437-3.178-3.437-4.959-2.343-4.435-3.67-9.503-3.67-14.881s1.327-10.446 3.671-14.895-0.084 0.175-0.084-2.065c10.050-16.671 18.27-35.946 23.653-56.372s0.347-3.148 0.347-4.108c0.622-1.638 1.267-3.008 2.003-4.322 1.067-2.028 2.342-3.916 3.797-5.647l2.84-3.151c1.776-1.55 3.769-2.931 5.908-4.076l3.692-2.004c3.41-1.388 7.365-2.207 11.507-2.24h40.333zM512 512c-88.366 0-160-71.634-160-160s71.634-160 160-160c88.366 0 160 71.634 160 160s-71.634 160-160 160zM512 256c-53.019 0-96 42.981-96 96s42.981 96 96 96c53.019 0 96-42.981 96-96s-42.981-96-96-96z" />
<glyph unicode="&#xe914;" glyph-name="header" data-tags="header" d="M832 0h-640c-17.673 0-32 14.327-32 32v640c0 17.673 14.327 32 32 32h640c17.673 0 32-14.327 32-32v-640c0-17.673-14.327-32-32-32zM224 64h576v576h-576zM832 448h-640c-17.673 0-32 14.327-32 32s14.327 32 32 32h640c17.673 0 32-14.327 32-32s-14.327-32-32-32zM381.12 450.88c-0.055 0-0.12-0.001-0.185-0.001-8.791 0-16.753 3.545-22.537 9.283l-189.118 189.118c-5.815 5.815-9.411 13.847-9.411 22.72 0 17.745 14.386 32.131 32.131 32.131 8.873 0 16.905-3.596 22.72-9.411l189.12-189.12c5.847-5.8 9.466-13.838 9.466-22.721 0-17.673-14.327-32-32-32-0.065 0-0.131 0-0.196 0.001zM541.12 450.88c-0.055 0-0.12-0.001-0.185-0.001-8.791 0-16.753 3.545-22.537 9.283l-189.118 189.118c-4.783 5.559-7.695 12.847-7.695 20.815 0 17.673 14.327 32 32 32 7.968 0 15.255-2.912 20.857-7.73l189.078-189.085c5.847-5.8 9.466-13.838 9.466-22.721 0-17.673-14.327-32-32-32-0.065 0-0.131 0-0.196 0.001zM701.12 450.88c-0.055 0-0.12-0.001-0.185-0.001-8.791 0-16.753 3.545-22.537 9.283l-189.118 189.118c-4.783 5.559-7.695 12.847-7.695 20.815 0 17.673 14.327 32 32 32 7.968 0 15.255-2.912 20.857-7.73l189.078-189.085c5.847-5.8 9.466-13.838 9.466-22.721 0-17.673-14.327-32-32-32-0.065 0-0.131 0-0.196 0.001zM832 480c-0.055 0-0.12-0.001-0.185-0.001-8.791 0-16.753 3.545-22.537 9.283l-159.998 159.998c-4.783 5.559-7.695 12.847-7.695 20.815 0 17.673 14.327 32 32 32 7.968 0 15.255-2.912 20.857-7.73l159.958-159.965c5.658-5.768 9.151-13.678 9.151-22.403 0-17.515-14.072-31.744-31.527-31.997z" />
<glyph unicode="&#xe915;" glyph-name="home" data-tags="home" d="M850.24 474.24l-50.24 35.2v130.56c0 17.673-14.327 32-32 32h-96c-17.673 0-32-14.327-32-32v-18.56l-109.76 76.8c-5.124 3.64-11.508 5.819-18.4 5.819s-13.276-2.179-18.499-5.886l-319.901-223.933c-8.297-5.872-13.648-15.431-13.648-26.24 0-17.7 14.349-32.048 32.048-32.048 6.891 0 13.274 2.175 18.5 5.876l13.66 9.533v-399.36c0-17.673 14.327-32 32-32h512c17.673 0 32 14.327 32 32v399.36l13.76-9.6c5.126-3.634 11.509-5.808 18.4-5.808 17.7 0 32.048 14.349 32.048 32.048 0 10.809-5.351 20.368-13.548 26.173zM704 608h32v-53.76l-21.44 15.040-10.56 6.72zM288 64v412.16l224 156.8 180.16-126.080 43.84-32v-410.88z" />
<glyph unicode="&#xe916;" glyph-name="image-1" data-tags="image-1" d="M832 704h-640c-17.673 0-32-14.327-32-32v-640c0-17.673 14.327-32 32-32h640c17.673 0 32 14.327 32 32v640c0 17.673-14.327 32-32 32zM800 64h-576v576h576zM288 192h448c17.673 0 32 14.327 32 32v352c0 17.673-14.327 32-32 32h-448c-17.673 0-32-14.327-32-32v-352c0-17.673 14.327-32 32-32zM320 343.36l88.32 80.64 115.52-128 34.24-40h-238.080zM643.52 256l-51.84 58.24 59.52 55.68 52.8-47.36v-66.56zM704 544v-135.68l-32 28.8c-5.671 5.202-13.263 8.39-21.6 8.39s-15.929-3.188-21.624-8.411l-79.656-74.539-114.56 128c-5.507 6.108-13.288 10.073-21.997 10.556-0.615 0.035-1.238 0.053-1.865 0.053-8.326 0-15.91-3.18-21.602-8.391l-69.096-63.978v115.2z" />
<glyph unicode="&#xe917;" glyph-name="image-2" data-tags="image-2" d="M832 576h-512c-17.673 0-32-14.327-32-32v-512c0-17.673 14.327-32 32-32h512c17.673 0 32 14.327 32 32v512c0 17.673-14.327 32-32 32zM800 512v-219.2l-13.44 8.96c-5.050 3.489-11.304 5.573-18.044 5.573-8.202 0-15.683-3.086-21.346-8.159l-97.89-88.613-164.16 168.64c-5.75 5.563-13.594 8.992-22.24 8.992s-16.49-3.429-22.249-9l-88.631-80.312v213.12zM800 64h-8l-97.92 100.8 77.44 70.080 28.48-19.52zM352 211.84l109.12 100.48 242.88-248.32h-352zM736 672c0 17.673-14.327 32-32 32h-512c-17.673 0-32-14.327-32-32v-512c0-17.673 14.327-32 32-32s32 14.327 32 32v480h480c17.673 0 32 14.327 32 32z" />
<glyph unicode="&#xe918;" glyph-name="layout" data-tags="layout" d="M832 704h-640c-17.673 0-32-14.327-32-32v-640c0-17.673 14.327-32 32-32h640c17.673 0 32 14.327 32 32v640c0 17.673-14.327 32-32 32zM800 512h-384v128h384zM416 448h160v-384h-160zM224 640h128v-576h-128zM640 64v384h160v-384z" />
<glyph unicode="&#xe919;" glyph-name="message" data-tags="message" d="M832 704h-512c-17.673 0-32-14.327-32-32v-96h-96c-17.673 0-32-14.327-32-32v-384c0-17.673 14.327-32 32-32h160v-96c0.023-17.656 14.341-31.96 32-31.96 8.11 0 15.515 3.017 21.155 7.99l135.005 119.97h163.84c17.673 0 32 14.327 32 32v96h96c17.673 0 32 14.327 32 32v384c0 17.673-14.327 32-32 32zM528 192c-8.115-0.012-15.52-3.043-21.154-8.029l-90.846-80.611v56.64c0 17.673-14.327 32-32 32h-160v320h448v-320zM800 320h-64v224c0 17.673-14.327 32-32 32h-352v64h448zM576 448h-256c-17.673 0-32-14.327-32-32s14.327-32 32-32h256c17.673 0 32 14.327 32 32s-14.327 32-32 32zM448 320h-128c-17.673 0-32-14.327-32-32s14.327-32 32-32h128c17.673 0 32 14.327 32 32s-14.327 32-32 32z" />
<glyph unicode="&#xe91a;" glyph-name="mobile" data-tags="mobile" d="M688 0h-352c-35.346 0-64 28.654-64 64v576c0 35.346 28.654 64 64 64h352c35.346 0 64-28.654 64-64v-576c0-35.346-28.654-64-64-64zM336 640v-576h352v576zM720 130.56h-416c-17.673 0-32 14.327-32 32s14.327 32 32 32h416c17.673 0 32-14.327 32-32s-14.327-32-32-32z" />
<glyph unicode="&#xe91b;" glyph-name="mortgage" data-tags="mortgage" d="M832 416c-6.83 0.017-13.153 2.17-18.341 5.828l-301.659 211.132-301.76-211.2c-5.126-3.634-11.509-5.808-18.4-5.808-17.7 0-32.048 14.349-32.048 32.048 0 10.809 5.351 20.368 13.548 26.173l320.1 224.067c5.124 3.64 11.508 5.819 18.4 5.819s13.276-2.179 18.499-5.886l319.901-223.933c8.317-5.86 13.684-15.423 13.684-26.24 0-17.647-14.284-31.957-31.92-32zM768 0h-512c-17.673 0-32 14.327-32 32v448c0 17.673 14.327 32 32 32s32-14.327 32-32v-416h448v416c0 17.673 14.327 32 32 32s32-14.327 32-32v-448c0-17.673-14.327-32-32-32zM416 288c-44.183 0-80 35.817-80 80v32c0 44.183 35.817 80 80 80s80-35.817 80-80v-32c0-44.183-35.817-80-80-80zM416 416c-8.837 0-16-7.163-16-16v-32c0-8.837 7.163-16 16-16s16 7.163 16 16v32c0 8.837-7.163 16-16 16zM608 96c-44.183 0-80 35.817-80 80v32c0 44.183 35.817 80 80 80s80-35.817 80-80v-32c0-44.183-35.817-80-80-80zM608 224c-8.837 0-16-7.163-16-16v-32c0-8.837 7.163-16 16-16s16 7.163 16 16v32c0 8.837-7.163 16-16 16zM384 96c-17.61 0.083-31.853 14.378-31.853 32 0 7.524 2.597 14.442 6.943 19.906l255.95 319.935c5.901 7.795 15.161 12.78 25.585 12.78 17.673 0 32-14.327 32-32 0-7.952-2.9-15.226-7.701-20.823l-255.964-319.957c-5.914-7.249-14.846-11.84-24.851-11.84-0.038 0-0.076 0-0.115 0z" />
<glyph unicode="&#xe91c;" glyph-name="pin" data-tags="pin" d="M854.72 468.48l-226.24 226.24c-5.797 5.831-13.824 9.44-22.694 9.44-15.465 0-28.368-10.97-31.35-25.554l-20.835-102.606-148.8-150.4c-14.211 4.663-30.567 7.353-47.552 7.353-40.003 0-76.522-14.919-104.295-39.497-5.584-5.639-9.139-13.612-9.139-22.415s3.555-16.776 9.307-22.562l104.318-104.318-188.16-189.44c-6.865-5.904-11.185-14.6-11.185-24.305 0-17.673 14.327-32 32-32 9.705 0 18.401 4.321 24.27 11.143l188.195 188.202 104.32-104.32c5.784-5.751 13.757-9.305 22.56-9.305s16.776 3.555 22.562 9.307c24.432 27.605 39.351 64.124 39.351 104.127 0 16.984-2.689 33.34-7.665 48.665l152.313 147.366 103.68 20.8c14.789 3.018 25.76 15.921 25.76 31.386 0 8.87-3.609 16.897-9.438 22.693zM712.64 454.72c-6.421-1.292-11.983-4.351-16.323-8.643l-168.957-168.957c-5.659-5.768-9.152-13.679-9.152-22.405 0-3.426 0.538-6.727 1.535-9.821 5.142-13.176 8.158-28.689 8.158-44.907 0-11.367-1.482-22.388-4.262-32.88l-196.599 197.693c9.574 2.532 20.565 3.986 31.896 3.986 16.242 0 31.786-2.988 46.113-8.444 1.979-0.636 5.279-1.175 8.705-1.175 8.727 0 16.637 3.493 22.41 9.157l168.955 168.955c4.289 4.337 7.348 9.899 8.605 16.115l11.555 54.605 142.72-142.72z" />
<glyph unicode="&#xe91d;" glyph-name="plan" data-tags="plan" d="M593.92 0c-17.312 0.464-31.169 14.608-31.169 31.989 0 10.629 5.182 20.048 13.158 25.867l130.651 96.063c5.198 3.8 11.716 6.080 18.766 6.080 0.040 0 0.080 0 0.12 0h74.554v480h-576v-480h297.28c17.673 0 32-14.327 32-32s-14.327-32-32-32h-329.28c-17.673 0-32 14.327-32 32v544c0 17.673 14.327 32 32 32h640c17.673 0 32-14.327 32-32v-544c0-17.673-14.327-32-32-32h-96l-122.24-89.92c-5.202-3.81-11.729-6.097-18.79-6.097-0.369 0-0.737 0.006-1.104 0.019zM832 448h-99.84c-17.673 0-32 14.327-32 32s14.327 32 32 32h99.84c17.673 0 32-14.327 32-32s-14.327-32-32-32zM576 448h-384c-17.673 0-32 14.327-32 32s14.327 32 32 32h384c17.673 0 32-14.327 32-32s-14.327-32-32-32zM448 96c-17.673 0-32 14.327-32 32v105.28c0 17.673 14.327 32 32 32s32-14.327 32-32v-105.28c0-17.673-14.327-32-32-32zM448 314.56c-17.673 0-32 14.327-32 32v133.44c0 17.673 14.327 32 32 32s32-14.327 32-32v-133.44c0-17.673-14.327-32-32-32z" />
<glyph unicode="&#xe91e;" glyph-name="preview" data-tags="preview" d="M860.48 366.72c-5.12 10.24-131.52 249.28-348.48 249.28s-343.040-239.040-348.48-249.28c-2.26-4.274-3.587-9.342-3.587-14.72s1.327-10.446 3.671-14.895c5.036-10.065 131.436-249.105 348.396-249.105s343.040 239.040 348.48 249.28c2.26 4.274 3.587 9.342 3.587 14.72s-1.327 10.446-3.671 14.895zM512 152c-150.080 0-253.76 151.68-283.2 200 29.12 48.64 132.48 200 283.2 200s253.76-151.68 283.2-200c-29.12-48.64-132.48-200-283.2-200zM512 472c-2.778 0.218-6.014 0.342-9.28 0.342s-6.502-0.124-9.706-0.368c11.897-10.998 19.023-26.469 19.023-43.605 0-0.749-0.014-1.494-0.041-2.236 0.004 0.012 0.004-0.1 0.004-0.213 0-33.049-26.791-59.84-59.84-59.84 0 0-0.001 0-0.001 0-22.47 0.291-41.891 13.056-51.685 31.676-5.822-12.585-9.12-27.633-9.12-43.451 0-0.36 0.002-0.72 0.005-1.080-0.005-0.325-0.007-0.774-0.007-1.223 0-66.274 53.726-120 120-120s120 53.726 120 120c0 66.047-53.358 119.631-119.318 119.998z" />
<glyph unicode="&#xe91f;" glyph-name="search" data-tags="search" d="M416 576c-17.673 0-32-14.327-32-32s14.327-32 32-32c35.346 0 64-28.654 64-64 0-17.673 14.327-32 32-32s32 14.327 32 32c0 70.692-57.308 128-128 128zM877.12 77.12l-139.2 139.2c-11.561 11.459-27.478 18.54-45.049 18.54-5.944 0-11.7-0.81-17.161-2.327l-57.79 58.667c33.57 42.889 53.832 97.602 53.832 157.048 0 141.385-114.615 256-256 256s-256-114.615-256-256c0-141.385 114.615-256 256-256 59.446 0 114.159 20.262 157.61 54.256l57.678-58.664c-1.41-5.012-2.22-10.767-2.22-16.711 0-17.571 7.081-33.488 18.545-45.054l139.195-139.195c11.588-11.588 27.597-18.756 45.28-18.756 35.366 0 64.036 28.67 64.036 64.036 0 17.683-7.167 33.692-18.756 45.28zM224 448c0 106.039 85.961 192 192 192s192-85.961 192-192c0-106.039-85.961-192-192-192s-192 85.961-192 192z" />
<glyph unicode="&#xe920;" glyph-name="section" data-tags="section" d="M731.84 0h-443.84c-17.673 0-32 14.327-32 32v125.44c0 17.673 14.327 32 32 32s32-14.327 32-32v-93.44h411.84c17.673 0 32-14.327 32-32s-14.327-32-32-32zM288 488c-17.673 0-32 14.327-32 32v152c0 17.673 14.327 32 32 32h448c17.673 0 32-14.327 32-32v-149.44c0-17.673-14.327-32-32-32s-32 14.327-32 32v117.44h-384v-120c0-17.673-14.327-32-32-32zM528 128h-336c-17.673 0-32 14.327-32 32v352c0 17.673 14.327 32 32 32h640c17.673 0 32-14.327 32-32v-172.16c0-17.673-14.327-32-32-32s-32 14.327-32 32v140.16h-576v-288h304c17.673 0 32-14.327 32-32s-14.327-32-32-32zM672 128c-17.673 0-32 14.327-32 32v192c0 17.673 14.327 32 32 32s32-14.327 32-32v-192c0-17.673-14.327-32-32-32zM768 224h-192c-17.673 0-32 14.327-32 32s14.327 32 32 32h192c17.673 0 32-14.327 32-32s-14.327-32-32-32z" />
<glyph unicode="&#xe921;" glyph-name="slider" data-tags="slider" d="M832 128h-640c-17.673 0-32 14.327-32 32v512c0 17.673 14.327 32 32 32h640c17.673 0 32-14.327 32-32v-512c0-17.673-14.327-32-32-32zM224 192h576v448h-576zM448 32c0-17.673-14.327-32-32-32s-32 14.327-32 32c0 17.673 14.327 32 32 32s32-14.327 32-32zM544 32c0-17.673-14.327-32-32-32s-32 14.327-32 32c0 17.673 14.327 32 32 32s32-14.327 32-32zM640 32c0-17.673-14.327-32-32-32s-32 14.327-32 32c0 17.673 14.327 32 32 32s32-14.327 32-32z" />
<glyph unicode="&#xe922;" glyph-name="social" data-tags="social" d="M832 0h-2.24l-219.52 14.4c-28.658-7.175-62.27-12.309-96.719-14.329-195.925-0.071-353.521 157.525-353.521 351.929s157.596 352 352 352c194.404 0 352-157.596 352-352-1.882-34.422-6.564-66.643-13.864-97.857l13.864-220.223c0.037-0.574 0.058-1.245 0.058-1.92 0-17.673-14.327-32-32-32-0.020 0-0.041 0-0.061 0zM512 640c-159.058 0-288-128.942-288-288s128.942-288 288-288c32.744 2.353 63.015 7.239 92.332 14.538-2.297-0.563-0.689-0.44 0.948-0.44s3.246-0.123 4.817-0.36l187.983-12.138-11.2 192c-0.186 1.298-0.293 2.796-0.293 4.32s0.106 3.022 0.312 4.489c6.16 24.58 10.818 53.874 12.999 83.855 0.101 160.794-128.841 289.736-287.899 289.736zM462.72 352c0-44.183-35.817-80-80-80s-80 35.817-80 80c0 44.183 35.817 80 80 80s80-35.817 80-80zM689.28 480c0-44.183-35.817-80-80-80s-80 35.817-80 80c0 44.183 35.817 80 80 80s80-35.817 80-80zM689.28 224c0-44.183-35.817-80-80-80s-80 35.817-80 80c0 44.183 35.817 80 80 80s80-35.817 80-80zM384 320c-17.631 0.055-31.903 14.361-31.903 32 0 11.872 6.465 22.234 16.067 27.758l226.715 128.082c4.592 2.685 10.111 4.27 16 4.27 17.734 0 32.11-14.376 32.11-32.11 0-11.845-6.414-22.192-15.958-27.758l-226.713-128.082c-4.538-2.619-9.981-4.164-15.786-4.164-0.188 0-0.375 0.002-0.563 0.005zM608 192c-5.768 0.018-11.172 1.559-15.835 4.242l-226.405 127.918c-9.697 5.648-16.11 15.995-16.11 27.84 0 17.734 14.376 32.11 32.11 32.11 5.889 0 11.408-1.585 16.153-4.352l226.407-127.918c9.762-5.605 16.231-15.969 16.231-27.845 0-17.673-14.327-32-32-32-0.194 0-0.387 0.002-0.58 0.005z" />
<glyph unicode="&#xe923;" glyph-name="tablet" data-tags="tablet" d="M752 0h-480c-17.673 0-32 14.327-32 32v640c0 17.673 14.327 32 32 32h480c17.673 0 32-14.327 32-32v-640c0-17.673-14.327-32-32-32zM304 64h416v576h-416zM560 160c0-26.51-21.49-48-48-48s-48 21.49-48 48c0 26.51 21.49 48 48 48s48-21.49 48-48z" />
<glyph unicode="&#xe924;" glyph-name="trash" data-tags="trash" d="M800 576h-67.84c-13.12 59.52-60.16 128-124.16 128h-192c-64 0-111.040-68.48-124.16-128h-67.84c-17.673 0-32-14.327-32-32s14.327-32 32-32h576c17.673 0 32 14.327 32 32s-14.327 32-32 32zM357.76 576c10.88 32 35.2 64 58.24 64h192c23.040 0 47.36-32 58.24-64zM741.12 448c-1.577 0.276-3.393 0.433-5.247 0.433-15.791 0-28.911-11.438-31.526-26.482l-50.587-303.871c-5.242-30.517-31.505-53.446-63.124-53.446-0.308 0-0.616 0.002-0.923 0.007l-156.433-0.001c-0.261-0.004-0.568-0.006-0.876-0.006-31.618 0-57.882 22.929-63.070 53.066l-49.334 303.42c-2.627 15.498-15.953 27.153-32 27.153-17.912 0-32.433-14.521-32.433-32.433 0-1.865 0.157-3.693 0.46-5.471l51.173-303.489c10.48-60.974 62.916-106.796 126.071-106.88h157.449c0.046 0 0.1 0 0.154 0 63.233 0 115.756 45.851 126.137 106.119l50.988 304.441c0.334 1.735 0.525 3.731 0.525 5.772 0 16.052-11.819 29.343-27.229 31.647zM448 138.56h4.16c15.935 1.991 28.143 15.453 28.143 31.767 0 1.55-0.11 3.073-0.323 4.564l-31.98 245.269c-2.132 15.942-15.645 28.109-32 28.109-17.822 0-32.269-14.447-32.269-32.269 0-1.467 0.098-2.911 0.287-4.325l31.982-245.275c2.129-15.793 15.522-27.841 31.729-27.841 0.095 0 0.191 0 0.286 0.001zM576 138.56c0.081-0.001 0.176-0.001 0.271-0.001 16.207 0 29.599 12.048 31.71 27.676l32.018 245.605c0.171 1.249 0.269 2.693 0.269 4.16 0 17.822-14.447 32.269-32.269 32.269-16.355 0-29.868-12.167-31.982-27.944l-32.018-245.605c-0.169-1.237-0.266-2.667-0.266-4.119 0-16.187 12.019-29.567 27.62-31.703z" />
<glyph unicode="&#xe925;" glyph-name="typo" data-tags="typo" d="M480 64h-128c-17.673 0-32 14.327-32 32v352h-128c-17.673 0-32 14.327-32 32v128c0 17.673 14.327 32 32 32h416c17.673 0 32-14.327 32-32v-128c0-17.673-14.327-32-32-32h-96v-352c0-17.673-14.327-32-32-32zM384 128h64v352c0 17.673 14.327 32 32 32h96v64h-352v-64h128c17.673 0 32-14.327 32-32zM832 640h-128c-17.673 0-32 14.327-32 32s14.327 32 32 32h128c17.673 0 32-14.327 32-32s-14.327-32-32-32zM832 0h-128c-17.673 0-32 14.327-32 32s14.327 32 32 32h128c17.673 0 32-14.327 32-32s-14.327-32-32-32zM768 0c-17.673 0-32 14.327-32 32v640c0 17.673 14.327 32 32 32s32-14.327 32-32v-640c0-17.673-14.327-32-32-32z" />
<glyph unicode="&#xe926;" glyph-name="upload" data-tags="upload" d="M534.72 391.040v0c-5.784 5.751-13.757 9.305-22.56 9.305s-16.776-3.555-22.562-9.307l-95.998-95.998c-4.783-5.559-7.695-12.847-7.695-20.815 0-17.673 14.327-32 32-32 7.968 0 15.255 2.912 20.857 7.73l41.238 41.245v-243.84c0-17.673 14.327-32 32-32s32 14.327 32 32v243.84l41.28-41.28c5.559-4.783 12.847-7.695 20.815-7.695 17.673 0 32 14.327 32 32 0 7.968-2.912 15.255-7.73 20.857zM769.92 389.76c6.192 19.941 9.759 42.868 9.759 66.627 0 128.307-104.013 232.32-232.32 232.32-115.793 0-211.8-84.713-229.426-195.545-89.359-19.063-155.647-96.698-155.647-189.815 0-105.235 84.663-190.696 189.592-191.985 17.795-0.001 32.122 14.326 32.122 31.999s-14.327 32-32 32c-0.619-0.011-1.349-0.017-2.080-0.017-70.702 0-128.017 57.315-128.017 128.017 0 69.97 56.135 126.83 125.827 127.999l2.35 0.001c7.931 0.397 14.945 4.018 19.812 9.568l0.028 0.032c2.355 2.638 4.296 5.709 5.682 9.067 0.147 1.027 0.187 1.975 0.187 2.933s-0.040 1.905-0.117 2.843c0.091 0.74 0.138 1.743 0.138 2.757s-0.047 2.017-0.139 3.007c5.299 88.731 78.653 158.789 168.369 158.789 91.856 0 166.559-73.439 168.597-164.806 0.005-0.469 0.006-0.8 0.006-1.13 0-26.825-6.384-52.159-17.716-74.565l0.434 0.945c-0.033-0.526-0.052-1.141-0.052-1.76s0.019-1.234 0.056-1.844c-1.112-2.533-1.904-5.567-2.233-8.739l-0.012-0.137s0 0 0 0c-0.020-0.427-0.032-0.928-0.032-1.431 0-3.609 0.597-7.078 1.699-10.314 2.203-6.858 6.995-12.586 13.228-16.021l2.705-1.993c3.639-1.816 7.899-2.972 12.404-3.197 43.166-1.425 77.556-36.698 77.556-80.003 0-44.205-35.836-80.041-80.041-80.041-0.9 0-1.797 0.015-2.69 0.044-17.543-0.003-31.87-14.33-31.87-32.003s14.327-32 32-32c79.342 0.014 143.655 64.336 143.655 143.68 0 61.418-38.536 113.835-92.748 134.391z" />
<glyph unicode="&#xe927;" glyph-name="user-1" data-tags="user-1" d="M512 384c-88.366 0-160 71.634-160 160s71.634 160 160 160c88.366 0 160-71.634 160-160s-71.634-160-160-160zM512 640c-53.019 0-96-42.981-96-96s42.981-96 96-96c53.019 0 96 42.981 96 96s-42.981 96-96 96zM752 0c-17.673 0-32 14.327-32 32 0 114.875-93.125 208-208 208s-208-93.125-208-208c0-17.673-14.327-32-32-32s-32 14.327-32 32c0 150.221 121.779 272 272 272s272-121.779 272-272c0-17.673-14.327-32-32-32z" />
<glyph unicode="&#xe928;" glyph-name="video-1" data-tags="video-1" d="M864 673.6c0.102 0.96 0.16 2.073 0.16 3.2s-0.058 2.24-0.172 3.337c-0.387 2.058-0.942 3.991-1.663 5.841-0.925 1.608-1.985 3.178-3.172 4.642-1.308 1.856-2.782 3.532-4.412 5.041l-0.021 0.019-3.52 1.92c-1.75 1.194-3.751 2.268-5.865 3.123l-6.295 0.077-7.040 3.2h-640c-17.673 0-32-14.327-32-32v0-640c0-17.673 14.327-32 32-32h640c17.673 0 32 14.327 32 32v640s0 0 0 1.6zM642.56 544l76.8 96h46.080l-76.8-96zM514.56 544l76.8 96h46.080l-76.8-96zM386.56 544l76.8 96h46.080l-76.8-96zM258.56 544l76.8 96h46.080l-76.8-96zM253.44 640l-29.44-36.8v36.8zM800 580.8v-36.8h-29.44zM224 64v416h576v-416zM626.56 302.4l-160 114.56c-5.157 3.71-11.599 5.933-18.56 5.933-17.621 0-31.916-14.243-32-31.845v-229.128c0.084-17.61 14.378-31.853 32-31.853 6.961 0 13.404 2.223 18.656 5.998l159.905 114.495c8.058 5.884 13.234 15.297 13.234 25.92s-5.176 20.037-13.144 25.857zM480 224v104.64l72.96-52.16z" />
<glyph unicode="&#xe929;" glyph-name="angle-bottom" data-tags="angle-bottom" d="M512 179.84c-0.030 0-0.065 0-0.101 0-35.321 0-67.301 14.307-90.46 37.441l-252.159 252.159c-4.783 5.559-7.695 12.847-7.695 20.815 0 17.673 14.327 32 32 32 7.968 0 15.255-2.912 20.857-7.73l252.118-252.125c11.584-11.597 27.594-18.77 45.28-18.77s33.696 7.174 45.279 18.77l252.161 252.161c5.559 4.783 12.847 7.695 20.815 7.695 17.673 0 32-14.327 32-32 0-7.968-2.912-15.255-7.73-20.857l-252.125-252.118c-23.108-23.083-54.999-37.378-90.228-37.44z" />
<glyph unicode="&#xe92a;" glyph-name="angle-bottom-circle" data-tags="angle-bottom-circle" d="M512 0c-194.404 0-352 157.596-352 352s157.596 352 352 352c194.404 0 352-157.596 352-352s-157.596-352-352-352zM512 640c-159.058 0-288-128.942-288-288s128.942-288 288-288c159.058 0 288 128.942 288 288s-128.942 288-288 288zM512 243.84c-0.121-0.001-0.264-0.001-0.407-0.001-21.973 0-41.86 8.93-56.23 23.358l-126.083 126.083c-4.783 5.559-7.695 12.847-7.695 20.815 0 17.673 14.327 32 32 32 7.968 0 15.255-2.912 20.857-7.73l126.038-126.045c2.9-2.923 6.919-4.733 11.36-4.733s8.46 1.81 11.359 4.732l126.081 126.081c5.559 4.783 12.847 7.695 20.815 7.695 17.673 0 32-14.327 32-32 0-7.968-2.912-15.255-7.73-20.857l-126.045-126.038c-14.373-14.431-34.259-23.36-56.232-23.36-0.031 0-0.062 0-0.093 0z" />
<glyph unicode="&#xe92b;" glyph-name="angle-left" data-tags="angle-left" d="M652.16 0c-0.055 0-0.12-0.001-0.185-0.001-8.791 0-16.753 3.545-22.537 9.283l-252.158 252.158c-23.193 23.168-37.541 55.189-37.541 90.56s14.347 67.391 37.539 90.559l252.161 252.161c5.559 4.783 12.847 7.695 20.815 7.695 17.673 0 32-14.327 32-32 0-7.968-2.912-15.255-7.73-20.857l-252.125-252.118c-11.597-11.584-18.77-27.594-18.77-45.28s7.174-33.696 18.77-45.279l252.161-252.161c5.847-5.8 9.466-13.837 9.466-22.72 0-17.626-14.251-31.924-31.859-32z" />
<glyph unicode="&#xe92c;" glyph-name="angle-right" data-tags="angle-right" d="M371.84 0c-0.055 0-0.121-0.001-0.186-0.001-17.673 0-32 14.327-32 32 0 8.883 3.619 16.921 9.464 22.718l252.162 252.162c11.597 11.584 18.77 27.594 18.77 45.28s-7.174 33.696-18.77 45.279l-252.161 251.841c-4.783 5.559-7.695 12.847-7.695 20.815 0 17.673 14.327 32 32 32 7.968 0 15.255-2.912 20.857-7.73l252.118-252.125c23.193-23.168 37.541-55.189 37.541-90.56s-14.347-67.391-37.539-90.559l-252.161-252.161c-5.746-5.545-13.578-8.961-22.208-8.961-0.068 0-0.135 0-0.203 0.001z" />
<glyph unicode="&#xe92d;" glyph-name="angle-top" data-tags="angle-top" d="M832 179.84c-0.055 0-0.12-0.001-0.185-0.001-8.791 0-16.753 3.545-22.537 9.283l-252.158 252.158c-11.584 11.597-27.594 18.77-45.28 18.77s-33.696-7.174-45.279-18.77l-251.841-252.161c-5.559-4.783-12.847-7.695-20.815-7.695-17.673 0-32 14.327-32 32 0 7.968 2.912 15.255 7.73 20.857l252.125 252.118c23.168 23.193 55.189 37.541 90.56 37.541s67.391-14.347 90.559-37.539l252.161-252.161c5.657-5.767 9.148-13.676 9.148-22.401 0-17.673-14.327-32-32-32-0.066 0-0.132 0-0.198 0.001z" />
<glyph unicode="&#xe92e;" glyph-name="angle-top-circle" data-tags="angle-top-circle" d="M512 0c-194.404 0-352 157.596-352 352s157.596 352 352 352c194.404 0 352-157.596 352-352s-157.596-352-352-352zM512 640c-159.058 0-288-128.942-288-288s128.942-288 288-288c159.058 0 288 128.942 288 288s-128.942 288-288 288zM672 256c-0.055 0-0.12-0.001-0.185-0.001-8.791 0-16.753 3.545-22.537 9.283l-126.078 126.078c-2.9 2.923-6.919 4.733-11.36 4.733s-8.46-1.81-11.359-4.732l-126.081-126.081c-5.559-4.783-12.847-7.695-20.815-7.695-17.673 0-32 14.327-32 32 0 7.968 2.912 15.255 7.73 20.857l126.045 126.038c14.686 14.072 34.651 22.736 56.64 22.736s41.954-8.664 56.669-22.763l126.051-126.052c5.656-5.767 9.148-13.676 9.148-22.4 0-17.627-14.252-31.925-31.861-32z" />
<glyph unicode="&#xe92f;" glyph-name="arrow-bottom" data-tags="arrow-bottom" d="M785.28 458.56l-224-290.88c-11.812-15.369-30.2-25.177-50.88-25.177s-39.068 9.808-50.768 25.026l-224.112 291.031c-8.147 10.626-13.056 24.109-13.056 38.738 0 35.346 28.654 64 64 64 0.54 0 1.078-0.007 1.615-0.020l447.921 0.002c34.624-0.928 62.338-29.217 62.338-63.978 0-14.631-4.909-28.115-13.171-38.895z" />
<glyph unicode="&#xe930;" glyph-name="arrow-left" data-tags="arrow-left" d="M618.56 78.72l-290.88 224c-15.369 11.812-25.177 30.2-25.177 50.88s9.808 39.068 25.026 50.768l291.031 224.112c10.626 8.147 24.109 13.056 38.738 13.056 35.346 0 64-28.654 64-64 0-0.54-0.007-1.078-0.020-1.615l0.002-447.921c-0.928-34.624-29.217-62.338-63.978-62.338-14.631 0-28.115 4.909-38.895 13.171z" />
<glyph unicode="&#xe931;" glyph-name="arrow-right" data-tags="arrow-right" d="M405.44 625.28l290.88-224c15.369-11.812 25.177-30.2 25.177-50.88s-9.808-39.068-25.026-50.768l-291.031-224.112c-10.626-8.147-24.109-13.056-38.738-13.056-35.346 0-64 28.654-64 64 0 0.54 0.007 1.078 0.020 1.615l-0.002 447.921c0.928 34.624 29.217 62.338 63.978 62.338 14.631 0 28.115-4.909 38.895-13.171z" />
<glyph unicode="&#xe932;" glyph-name="arrow-top" data-tags="arrow-top" d="M238.72 245.44l224 290.88c11.812 15.369 30.2 25.177 50.88 25.177s39.068-9.808 50.768-25.026l224.112-291.031c8.147-10.626 13.056-24.109 13.056-38.738 0-35.346-28.654-64-64-64-0.54 0-1.078 0.007-1.615 0.020l-447.921-0.002c-34.624 0.928-62.338 29.217-62.338 63.978 0 14.631 4.909 28.115 13.171 38.895z" />
<glyph unicode="&#xe933;" glyph-name="back" data-tags="back" d="M592 32h-256c-17.673 0-32 14.327-32 32s14.327 32 32 32h256c106.039 0 192 85.961 192 192s-85.961 192-192 192h-384c-17.673 0-32 14.327-32 32s14.327 32 32 32h384c141.385 0 256-114.615 256-256s-114.615-256-256-256zM320 352c-0.055 0-0.12-0.001-0.185-0.001-8.791 0-16.753 3.545-22.537 9.283l-100.798 100.798c-12.728 12.738-20.599 30.33-20.599 49.76s7.872 37.022 20.6 49.76l101.12 101.12c5.559 4.783 12.847 7.695 20.815 7.695 17.673 0 32-14.327 32-32 0-7.968-2.912-15.255-7.73-20.857l-100.765-101.078c-1.131-1.153-1.829-2.735-1.829-4.48s0.698-3.327 1.83-4.481l100.799-100.799c5.847-5.8 9.466-13.838 9.466-22.721 0-17.673-14.327-32-32-32-0.065 0-0.131 0-0.196 0.001z" />
<glyph unicode="&#xe934;" glyph-name="check-1" data-tags="check-1" d="M437.12 128v0c-9.222 0.031-17.521 3.958-23.342 10.22l-213.458 231.38c-6.090 5.836-9.874 14.035-9.874 23.118 0 17.673 14.327 32 32 32 10.040 0 19.001-4.624 24.868-11.859l189.807-206.14 339.52 359.36c5.674 5.215 13.275 8.411 21.623 8.411 17.673 0 32-14.327 32-32 0-7.709-2.726-14.782-7.267-20.306l-362.836-383.944c-5.767-6.207-13.935-10.115-23.017-10.24z" />
<glyph unicode="&#xe935;" glyph-name="check-2" data-tags="check-2" d="M437.12 112v0c-14.1 0.078-26.749 6.223-35.48 15.955l-212.84 230.765c-10.013 8.84-16.295 21.706-16.295 36.039 0 26.51 21.49 48 48 48 16.015 0 30.199-7.843 38.918-19.898l178.337-192.14 327.36 345.28c8.69 13.243 23.469 21.867 40.262 21.867 26.51 0 48-21.49 48-48 0-15.341-7.197-29.001-18.398-37.788l-362.984-384.079c-8.631-9.624-21.017-15.73-34.833-15.999z" />
<glyph unicode="&#xe936;" glyph-name="cross-1" data-tags="cross-1" d="M285.76 93.76c-0.055 0-0.121-0.001-0.186-0.001-17.673 0-32 14.327-32 32 0 8.883 3.619 16.921 9.464 22.718l452.482 452.482c5.559 4.783 12.847 7.695 20.815 7.695 17.673 0 32-14.327 32-32 0-7.968-2.912-15.255-7.73-20.857l-452.125-452.758c-5.782-5.736-13.744-9.281-22.535-9.281-0.065 0-0.13 0-0.195 0.001zM738.24 93.76c-0.055 0-0.12-0.001-0.185-0.001-8.791 0-16.753 3.545-22.537 9.283l-452.478 452.478c-5.815 5.815-9.411 13.847-9.411 22.72 0 17.745 14.386 32.131 32.131 32.131 8.873 0 16.905-3.596 22.72-9.411l452.48-452.48c5.847-5.8 9.466-13.838 9.466-22.721 0-17.673-14.327-32-32-32-0.065 0-0.131 0-0.196 0.001z" />
<glyph unicode="&#xe937;" glyph-name="cross-2" data-tags="cross-2" d="M285.76 77.76c-0.084-0.001-0.182-0.001-0.281-0.001-26.51 0-48 21.49-48 48 0 13.405 5.495 25.526 14.354 34.234l452.167 452.167c8.722 8.722 20.771 14.116 34.080 14.116 26.618 0 48.196-21.578 48.196-48.196 0-13.309-5.395-25.358-14.116-34.080l-452.16-452.16c-8.688-8.699-20.697-14.081-33.963-14.081-0.097 0-0.195 0-0.292 0.001zM738.24 77.76c-0.082-0.001-0.18-0.001-0.277-0.001-13.266 0-25.275 5.381-33.963 14.080l-452.16 452.16c-8.722 8.722-14.116 20.771-14.116 34.080 0 26.618 21.578 48.196 48.196 48.196 13.309 0 25.358-5.395 34.080-14.116l452.16-452.16c8.674-8.684 14.038-20.676 14.038-33.92 0-26.495-21.466-47.976-47.955-48z" />
<glyph unicode="&#xe938;" glyph-name="dot" data-tags="dot" d="M512 272c-44.183 0-80 35.817-80 80s35.817 80 80 80c44.183 0 80-35.817 80-80s-35.817-80-80-80z" />
<glyph unicode="&#xe939;" glyph-name="ellipsis-horizontal" data-tags="ellipsis-horizontal" d="M320 352c0-35.346-28.654-64-64-64s-64 28.654-64 64c0 35.346 28.654 64 64 64s64-28.654 64-64zM256 272c-44.183 0-80 35.817-80 80s35.817 80 80 80c44.183 0 80-35.817 80-80s-35.817-80-80-80zM256 400c-26.51 0-48-21.49-48-48s21.49-48 48-48c26.51 0 48 21.49 48 48s-21.49 48-48 48zM832 352c0-35.346-28.654-64-64-64s-64 28.654-64 64c0 35.346 28.654 64 64 64s64-28.654 64-64zM768 272c-44.183 0-80 35.817-80 80s35.817 80 80 80c44.183 0 80-35.817 80-80s-35.817-80-80-80zM768 400c-26.51 0-48-21.49-48-48s21.49-48 48-48c26.51 0 48 21.49 48 48s-21.49 48-48 48zM576 352c0-35.346-28.654-64-64-64s-64 28.654-64 64c0 35.346 28.654 64 64 64s64-28.654 64-64zM512 272c-44.183 0-80 35.817-80 80s35.817 80 80 80c44.183 0 80-35.817 80-80s-35.817-80-80-80zM512 400c-26.51 0-48-21.49-48-48s21.49-48 48-48c26.51 0 48 21.49 48 48s-21.49 48-48 48z" />
<glyph unicode="&#xe93a;" glyph-name="ellipsis-vertical" data-tags="ellipsis-vertical" d="M576 608c0-35.346-28.654-64-64-64s-64 28.654-64 64c0 35.346 28.654 64 64 64s64-28.654 64-64zM512 528c-44.183 0-80 35.817-80 80s35.817 80 80 80c44.183 0 80-35.817 80-80s-35.817-80-80-80zM512 656c-26.51 0-48-21.49-48-48s21.49-48 48-48c26.51 0 48 21.49 48 48s-21.49 48-48 48zM576 96c0-35.346-28.654-64-64-64s-64 28.654-64 64c0 35.346 28.654 64 64 64s64-28.654 64-64zM512 16c-44.183 0-80 35.817-80 80s35.817 80 80 80c44.183 0 80-35.817 80-80s-35.817-80-80-80zM512 144c-26.51 0-48-21.49-48-48s21.49-48 48-48c26.51 0 48 21.49 48 48s-21.49 48-48 48zM576 352c0-35.346-28.654-64-64-64s-64 28.654-64 64c0 35.346 28.654 64 64 64s64-28.654 64-64zM512 272c-44.183 0-80 35.817-80 80s35.817 80 80 80c44.183 0 80-35.817 80-80s-35.817-80-80-80zM512 400c-26.51 0-48-21.49-48-48s21.49-48 48-48c26.51 0 48 21.49 48 48s-21.49 48-48 48z" />
<glyph unicode="&#xe93b;" glyph-name="exclamation-circle" data-tags="exclamation-circle" d="M512 288c-17.673 0-32 14.327-32 32v224c0 17.673 14.327 32 32 32s32-14.327 32-32v-224c0-17.673-14.327-32-32-32zM512 0c-194.404 0-352 157.596-352 352s157.596 352 352 352c194.404 0 352-157.596 352-352s-157.596-352-352-352zM512 640c-159.058 0-288-128.942-288-288s128.942-288 288-288c159.058 0 288 128.942 288 288s-128.942 288-288 288zM512 128c-24.212 0-43.84 19.628-43.84 43.84s19.628 43.84 43.84 43.84c24.212 0 43.84-19.628 43.84-43.84s-19.628-43.84-43.84-43.84z" />
<glyph unicode="&#xe93c;" glyph-name="grid" data-tags="grid" d="M416 416h-224c-17.673 0-32 14.327-32 32v224c0 17.673 14.327 32 32 32h224c17.673 0 32-14.327 32-32v-224c0-17.673-14.327-32-32-32zM224 480h160v160h-160zM832 416h-224c-17.673 0-32 14.327-32 32v224c0 17.673 14.327 32 32 32h224c17.673 0 32-14.327 32-32v-224c0-17.673-14.327-32-32-32zM640 480h160v160h-160zM416 0h-224c-17.673 0-32 14.327-32 32v224c0 17.673 14.327 32 32 32h224c17.673 0 32-14.327 32-32v-224c0-17.673-14.327-32-32-32zM224 64h160v160h-160zM832 0h-224c-17.673 0-32 14.327-32 32v224c0 17.673 14.327 32 32 32h224c17.673 0 32-14.327 32-32v-224c0-17.673-14.327-32-32-32zM640 64h160v160h-160z" />
<glyph unicode="&#xe93d;" glyph-name="list" data-tags="list" d="M832 548.48h-640c-17.673 0-32 14.327-32 32s14.327 32 32 32h640c17.673 0 32-14.327 32-32s-14.327-32-32-32zM832 320h-640c-17.673 0-32 14.327-32 32s14.327 32 32 32h640c17.673 0 32-14.327 32-32s-14.327-32-32-32zM832 91.52h-640c-17.673 0-32 14.327-32 32s14.327 32 32 32h640c17.673 0 32-14.327 32-32s-14.327-32-32-32z" />
<glyph unicode="&#xe93e;" glyph-name="magnifier" data-tags="magnifier" d="M416 576c-17.673 0-32-14.327-32-32s14.327-32 32-32c35.346 0 64-28.654 64-64 0-17.673 14.327-32 32-32s32 14.327 32 32c0 70.692-57.308 128-128 128zM877.12 77.12l-139.2 139.2c-11.561 11.459-27.478 18.54-45.049 18.54-5.944 0-11.7-0.81-17.161-2.327l-57.79 58.667c33.57 42.889 53.832 97.602 53.832 157.048 0 141.385-114.615 256-256 256s-256-114.615-256-256c0-141.385 114.615-256 256-256 59.446 0 114.159 20.262 157.61 54.256l57.678-58.664c-1.41-5.012-2.22-10.767-2.22-16.711 0-17.571 7.081-33.488 18.545-45.054l139.195-139.195c11.588-11.588 27.597-18.756 45.28-18.756 35.366 0 64.036 28.67 64.036 64.036 0 17.683-7.167 33.692-18.756 45.28zM224 448c0 106.039 85.961 192 192 192s192-85.961 192-192c0-106.039-85.961-192-192-192s-192 85.961-192 192z" />
<glyph unicode="&#xe93f;" glyph-name="mail" data-tags="mail" d="M864 384s0 0 0 1.92c-0.34 3.309-1.132 6.343-2.318 9.171l0.078 2.029c-1.684 3.464-3.827 6.426-6.396 8.956l-0.004 0.004-87.36 78.72v91.2c0 17.673-14.327 32-32 32h-105.28l-96 87.68c-5.65 5.114-13.179 8.244-21.44 8.244s-15.79-3.13-21.467-8.269l-98.533-87.656h-105.28c-17.673 0-32-14.327-32-32v-91.2l-85.44-76.8c-2.573-2.534-4.716-5.496-6.317-8.771l-0.083-2.429c-1.108-2.617-1.9-5.651-2.228-8.823s-0.012-0.137-0.012-2.057 0 0 0 0v-353.92c0-17.673 14.327-32 32-32h638.080c17.673 0 32 14.327 32 32v352s0 0 0 0zM775.68 390.4l-7.68-3.84v10.88zM512 628.8l23.36-20.8h-46.72zM704 544v-188.16l-192-96-192 96v188.16zM256 387.84l-7.68 3.84 7.68 6.72zM800 64h-576v268.16l273.6-136.96c4.151-2.108 9.051-3.343 14.24-3.343s10.089 1.235 14.423 3.427l273.737 136.876z" />
<glyph unicode="&#xe940;" glyph-name="maximize-1" data-tags="maximize-1" d="M620.48 173.12h-142.4c-17.673 0-32 14.327-32 32s14.327 32 32 32h142.72c3.535 0 6.4 2.865 6.4 6.4v142.4c0 17.673 14.327 32 32 32s32-14.327 32-32v-142.72c-0.181-38.743-31.631-70.081-70.399-70.081-0.113 0-0.225 0-0.338 0.001zM365.12 286.080c-17.673 0-32 14.327-32 32v142.4c0 38.881 31.519 70.4 70.4 70.4h142.72c17.673 0 32-14.327 32-32s-14.327-32-32-32h-142.72c-3.535 0-6.4-2.865-6.4-6.4v-142.72c-0.181-17.535-14.438-31.68-31.998-31.68-0.001 0-0.001 0-0.002 0z" />
<glyph unicode="&#xe941;" glyph-name="maximize-2" data-tags="maximize-2" d="M545.92 173.12h-142.4c-38.881 0-70.4 31.519-70.4 70.4v142.4c0 17.673 14.327 32 32 32s32-14.327 32-32v-142.72c0-3.535 2.865-6.4 6.4-6.4h142.72c17.673 0 32-14.327 32-32s-14.327-32-32-32zM658.88 286.080c-17.673 0-32 14.327-32 32v142.4c0 3.535-2.865 6.4-6.4 6.4h-142.4c-17.673 0-32 14.327-32 32s14.327 32 32 32h142.72c38.881 0 70.4-31.519 70.4-70.4v-142.72c-0.18-17.536-14.437-31.682-31.998-31.682-0.113 0-0.226 0.001-0.339 0.002z" />
<glyph unicode="&#xe942;" glyph-name="min-1" data-tags="min-1" d="M832 320h-640c-17.673 0-32 14.327-32 32s14.327 32 32 32h640c17.673 0 32-14.327 32-32s-14.327-32-32-32z" />
<glyph unicode="&#xe943;" glyph-name="min-2" data-tags="min-2" d="M832 304h-640c-26.51 0-48 21.49-48 48s21.49 48 48 48h640c26.51 0 48-21.49 48-48s-21.49-48-48-48z" />
<glyph unicode="&#xe944;" glyph-name="min-circle" data-tags="min-circle" d="M672 320h-320c-17.673 0-32 14.327-32 32s14.327 32 32 32h320c17.673 0 32-14.327 32-32s-14.327-32-32-32zM512 0c-194.404 0-352 157.596-352 352s157.596 352 352 352c194.404 0 352-157.596 352-352s-157.596-352-352-352zM512 640c-159.058 0-288-128.942-288-288s128.942-288 288-288c159.058 0 288 128.942 288 288s-128.942 288-288 288z" />
<glyph unicode="&#xe945;" glyph-name="pen" data-tags="pen" d="M821.44 661.44c-26.29 26.285-62.606 42.543-102.72 42.543s-76.43-16.258-102.72-42.543l-384-384c-3.676-3.729-6.445-8.362-7.944-13.534l-64.056-224.226c-0.62-2.353-0.975-5.055-0.975-7.84s0.356-5.487 1.024-8.062-0.049 0.222-0.049 0.222c0.527-1.532 1.067-2.8 1.684-4.024-0.121-0.39-0.142-1.061-0.142-1.736s0.021-1.346 0.062-2.011l1.915-2.469c1.016-1.561 2.069-2.92 3.223-4.185l-0.023 0.025c2.127-1.857 4.549-3.46 7.168-4.717l3.392-2.323c3.1-1.101 6.676-1.737 10.4-1.737s7.3 0.636 10.624 1.806l117.216 31.931 4.16 1.92 104.96 27.52c5.398 1.555 10.031 4.324 13.764 8.004l382.076 382.076c27.151 26.424 43.994 63.321 43.994 104.151 0 40.357-16.456 76.871-43.023 103.198zM776.32 616.32c14.689-14.705 23.773-35.012 23.773-57.44s-9.084-42.735-23.773-57.441l-7.359-7.359-114.88 113.92 7.36 7.36c14.963 14.533 35.406 23.494 57.943 23.494 22.048 0 42.092-8.576 56.98-22.574zM238.72 78.72l9.6 32c11.231-4.334 20.069-12.757 24.847-23.399zM398.72 124.48l-64-18.56c-11.561 32.042-36.733 56.689-68.348 67.295l18.108 66.145 323.52 324.16 115.52-115.52z" />
<glyph unicode="&#xe946;" glyph-name="plus-1" data-tags="plus-1" d="M512 0c-17.673 0-32 14.327-32 32v640c0 17.673 14.327 32 32 32s32-14.327 32-32v-640c0-17.673-14.327-32-32-32zM832 320h-640c-17.673 0-32 14.327-32 32s14.327 32 32 32h640c17.673 0 32-14.327 32-32s-14.327-32-32-32z" />
<glyph unicode="&#xe947;" glyph-name="plus-2" data-tags="plus-2" d="M512-16c-26.51 0-48 21.49-48 48v640c0 26.51 21.49 48 48 48s48-21.49 48-48v-640c0-26.51-21.49-48-48-48zM832 304h-640c-26.51 0-48 21.49-48 48s21.49 48 48 48h640c26.51 0 48-21.49 48-48s-21.49-48-48-48z" />
<glyph unicode="&#xe948;" glyph-name="plus-circle" data-tags="plus-circle" d="M512 160c-17.673 0-32 14.327-32 32v320c0 17.673 14.327 32 32 32s32-14.327 32-32v-320c0-17.673-14.327-32-32-32zM672 320h-320c-17.673 0-32 14.327-32 32s14.327 32 32 32h320c17.673 0 32-14.327 32-32s-14.327-32-32-32zM512 0c-194.404 0-352 157.596-352 352s157.596 352 352 352c194.404 0 352-157.596 352-352s-157.596-352-352-352zM512 640c-159.058 0-288-128.942-288-288s128.942-288 288-288c159.058 0 288 128.942 288 288s-128.942 288-288 288z" />
<glyph unicode="&#xe949;" glyph-name="print" data-tags="print" d="M736 448h-32v224c0 17.673-14.327 32-32 32h-320c-17.673 0-32-14.327-32-32v-224h-32c-70.692 0-128-57.308-128-128v-96c0-70.692 57.308-128 128-128 17.673 0 32 14.327 32 32s-14.327 32-32 32c-35.346 0-64 28.654-64 64v96c0 35.346 28.654 64 64 64h448c35.346 0 64-28.654 64-64v-96c0-35.346-28.654-64-64-64-17.673 0-32-14.327-32-32s14.327-32 32-32c70.692 0 128 57.308 128 128v96c0 70.692-57.308 128-128 128zM384 448v192h256v-192zM672 256h-320c-17.673 0-32-14.327-32-32v-192c0-17.673 14.327-32 32-32h320c17.673 0 32 14.327 32 32v192c0 17.673-14.327 32-32 32zM640 64h-256v128h256z" />
<glyph unicode="&#xe94a;" glyph-name="question-circle" data-tags="question-circle" d="M512 0c-194.404 0-352 157.596-352 352s157.596 352 352 352c194.404 0 352-157.596 352-352s-157.596-352-352-352zM512 640c-159.058 0-288-128.942-288-288s128.942-288 288-288c159.058 0 288 128.942 288 288s-128.942 288-288 288zM502.080 234.88c-17.673 0-32 14.327-32 32-0.062 1.549-0.098 3.367-0.098 5.193 0 33.798 12.129 64.764 32.272 88.781l45.905 38.506c9.134 10.064 14.726 23.489 14.726 38.219 0 0.289-0.002 0.577-0.006 0.864-0.333 31.69-26.136 57.287-57.916 57.287-15.371 0-29.343-5.987-39.712-15.757-5.53-4.755-12.818-7.667-20.786-7.667-17.673 0-32 14.327-32 32 0 7.968 2.912 15.255 7.73 20.857 22.032 21.906 52.454 35.473 86.045 35.473 67.42 0 122.075-54.655 122.075-122.075 0-33.83-13.761-64.445-35.99-86.555l-46.085-38.405c-7.674-12.388-12.222-27.413-12.222-43.499 0-1.133 0.023-2.26 0.067-3.382-0.005-17.512-14.332-31.839-32.005-31.839zM502.080 128c-24.212 0-43.84 19.628-43.84 43.84s19.628 43.84 43.84 43.84c24.212 0 43.84-19.628 43.84-43.84s-19.628-43.84-43.84-43.84z" />
<glyph unicode="&#xe94b;" glyph-name="share" data-tags="share" d="M832 0h-640c-17.673 0-32 14.327-32 32v640c0 17.673 14.327 32 32 32h320c17.673 0 32-14.327 32-32s-14.327-32-32-32h-288v-576h576v256c0 17.673 14.327 32 32 32s32-14.327 32-32v-288c0-17.673-14.327-32-32-32zM480 288c-17.673 0-32 14.327-32 32 0 141.385 114.615 256 256 256h128c17.673 0 32-14.327 32-32s-14.327-32-32-32h-128c-106.039 0-192-85.961-192-192 0-17.673-14.327-32-32-32zM720 384c-0.055 0-0.121-0.001-0.186-0.001-17.673 0-32 14.327-32 32 0 8.883 3.619 16.921 9.464 22.718l100.802 100.802c1.131 1.153 1.829 2.735 1.829 4.48s-0.698 3.327-1.83 4.481l-100.799 100.799c-5.842 5.802-9.458 13.839-9.458 22.72 0 17.683 14.335 32.018 32.018 32.018 8.802 0 16.774-3.552 22.562-9.3l100.798-100.798c12.728-12.738 20.599-30.33 20.599-49.76s-7.872-37.022-20.6-49.76l-100.8-101.12c-5.75-5.705-13.658-9.242-22.393-9.28z" />
<glyph unicode="&#xe94c;" glyph-name="sort-1" data-tags="sort-1" d="M640 400c-0.055 0-0.12-0.001-0.185-0.001-8.791 0-16.753 3.545-22.537 9.283l-100.798 100.798c-1.153 1.131-2.735 1.829-4.48 1.829s-3.327-0.698-4.481-1.83l-100.799-100.799c-5.559-4.783-12.847-7.695-20.815-7.695-17.673 0-32 14.327-32 32 0 7.968 2.912 15.255 7.73 20.857l100.765 100.758c12.738 12.728 30.33 20.599 49.76 20.599s37.022-7.872 49.76-20.6l100.8-100.8c5.656-5.767 9.148-13.676 9.148-22.4 0-17.627-14.252-31.925-31.861-32zM512 128c-0.122-0.001-0.266-0.001-0.411-0.001-19.33 0-36.832 7.826-49.51 20.482l-100.799 101.119c-4.783 5.559-7.695 12.847-7.695 20.815 0 17.673 14.327 32 32 32 7.968 0 15.255-2.912 20.857-7.73l100.758-100.765c1.153-1.131 2.735-1.829 4.48-1.829s3.327 0.698 4.481 1.83l100.799 100.799c5.559 4.783 12.847 7.695 20.815 7.695 17.673 0 32-14.327 32-32 0-7.968-2.912-15.255-7.73-20.857l-100.765-100.758c-12.583-12.72-29.991-20.644-49.25-20.8z" />
<glyph unicode="&#xe94d;" glyph-name="sort-2" data-tags="sort-2" d="M592 192c-0.055 0-0.121-0.001-0.186-0.001-17.673 0-32 14.327-32 32 0 8.883 3.619 16.921 9.464 22.718l100.802 100.802c1.131 1.153 1.829 2.735 1.829 4.48s-0.698 3.327-1.83 4.481l-100.799 100.799c-4.783 5.559-7.695 12.847-7.695 20.815 0 17.673 14.327 32 32 32 7.968 0 15.255-2.912 20.857-7.73l100.758-100.765c12.728-12.738 20.599-30.33 20.599-49.76s-7.872-37.022-20.6-49.76l-100.8-100.8c-5.75-5.705-13.658-9.242-22.393-9.28zM432 192c-0.055 0-0.12-0.001-0.185-0.001-8.791 0-16.753 3.545-22.537 9.283l-100.798 100.798c-12.728 12.738-20.599 30.33-20.599 49.76s7.872 37.022 20.6 49.76l100.8 100.8c5.559 4.783 12.847 7.695 20.815 7.695 17.673 0 32-14.327 32-32 0-7.968-2.912-15.255-7.73-20.857l-100.765-100.758c-1.131-1.153-1.829-2.735-1.829-4.48s0.698-3.327 1.83-4.481l100.799-100.799c5.847-5.8 9.466-13.837 9.466-22.72 0-17.626-14.251-31.924-31.859-32z" />
<glyph unicode="&#xe94e;" glyph-name="star-empty" data-tags="star-empty" d="M336.64 0c-14.534 0.041-27.969 4.713-38.917 12.615-17.755 12.724-29.314 33.516-29.314 57.008 0 4.232 0.375 8.376 1.094 12.401l23.937 144.856c0.421 2.322 0.661 4.995 0.661 7.724 0 12.304-4.89 23.465-12.832 31.647l-101.109 103.029c-12.427 12.685-20.097 30.073-20.097 49.252 0 8.144 1.383 15.966 3.927 23.242 7.872 23.807 28.538 41.805 53.861 45.855l140.229 21.171c13.628 2.315 24.783 11.143 30.296 23.108l64.104 132.412c10.975 23.318 34.276 39.17 61.28 39.17s50.305-15.852 61.105-38.759l64.175-132.572c5.617-12.217 16.772-21.045 30.16-23.326l140.080-21.154c25.711-4.101 46.378-22.099 54.262-45.918 2.532-7.264 3.915-15.085 3.915-23.23 0-19.179-7.669-36.567-20.108-49.264l-101.108-103.028c-7.92-8.215-12.799-19.409-12.799-31.742 0-2.691 0.232-5.328 0.678-7.892l23.961-145.327c0.656-3.601 1.031-7.745 1.031-11.977 0-23.492-11.559-44.285-29.3-57-10.977-7.948-24.452-12.628-39.019-12.628-11.83 0-22.939 3.086-32.566 8.497l-124.466 68.627c-5.261 2.956-11.547 4.698-18.24 4.698s-12.979-1.741-18.431-4.796l-124.609-68.702c-9.225-5.108-20.226-8.114-31.93-8.114-1.375 0-2.741 0.042-4.096 0.123zM512 145.92c17.986-0.082 34.849-4.818 49.469-13.064l124.611-68.856c4.16 0 6.080 2.88 5.44 6.72l-24 145.28c-1.097 5.828-1.725 12.532-1.725 19.383 0 29.817 11.89 56.858 31.187 76.639l101.098 103.018c0.625 1.001 0.996 2.217 0.996 3.52s-0.371 2.519-1.012 3.548c0.017 3.172-2.863 3.172-3.503 3.492l-139.84 21.12c-35.092 5.622-63.949 28.024-78.449 58.565l-64.271 132.795c-1.92 3.84-5.12 3.84-7.040 0l-64-132.16c-14.771-31.175-43.627-53.578-78.121-59.121l-140.439-21.199s-2.24 0-3.52-3.52c-0.625-1.001-0.996-2.217-0.996-3.52s0.371-2.519 1.012-3.548l101.103-103.012c19.275-19.759 31.165-46.799 31.165-76.617 0-6.851-0.628-13.556-1.829-20.059l-23.576-144.604c-0.125-0.46-0.196-0.988-0.196-1.533 0-1.984 0.95-3.746 2.421-4.856l128.015 68.469c14.448 8.353 31.781 13.282 50.266 13.282 2.017 0 4.020-0.059 6.008-0.174z" />
<glyph unicode="&#xe94f;" glyph-name="star-full" data-tags="star-full" d="M843.84 369.28c12.427 12.685 20.097 30.073 20.097 49.252 0 8.144-1.383 15.966-3.927 23.242-7.872 23.807-28.538 41.805-53.861 45.855l-140.229 21.171c-13.628 2.315-24.783 11.143-30.296 23.108l-64.104 132.412c-10.975 23.318-34.276 39.17-61.28 39.17s-50.305-15.852-61.105-38.759l-64.175-132.572c-5.617-12.217-16.772-21.045-30.16-23.326l-140.080-21.154c-25.711-4.101-46.378-22.099-54.262-45.918-2.532-7.264-3.915-15.085-3.915-23.23 0-19.179 7.669-36.567 20.108-49.264l101.108-103.028c7.931-8.171 12.821-19.332 12.821-31.636 0-2.729-0.241-5.402-0.702-7.999l-23.96-145.006c-0.656-3.601-1.031-7.745-1.031-11.977 0-23.492 11.559-44.285 29.3-57 10.977-7.948 24.452-12.628 39.019-12.628 11.83 0 22.939 3.086 32.566 8.497l124.466 68.627c5.261 2.956 11.547 4.698 18.24 4.698s12.979-1.741 18.431-4.796l124.609-68.702c9.293-5.238 20.402-8.325 32.232-8.325 14.568 0 28.042 4.68 39.002 12.618 17.758 12.725 29.317 33.518 29.317 57.010 0 4.232-0.375 8.376-1.094 12.401l-23.937 145.176c-0.406 2.29-0.639 4.927-0.639 7.618 0 12.333 4.879 23.526 12.812 31.756z" />
<glyph unicode="&#xe950;" glyph-name="star-half" data-tags="star-half" d="M843.84 369.28c12.427 12.685 20.097 30.073 20.097 49.252 0 8.144-1.383 15.966-3.927 23.242-7.872 23.807-28.538 41.805-53.861 45.855l-140.229 21.171c-13.628 2.315-24.783 11.143-30.296 23.108l-64.104 132.412c-10.975 23.318-34.276 39.17-61.28 39.17s-50.305-15.852-61.105-38.759l-64.175-132.572c-5.617-12.217-16.772-21.045-30.16-23.326l-140.080-21.154c-25.711-4.101-46.378-22.099-54.262-45.918-2.532-7.264-3.915-15.085-3.915-23.23 0-19.179 7.669-36.567 20.108-49.264l101.108-103.028c7.931-8.171 12.821-19.332 12.821-31.636 0-2.729-0.241-5.402-0.702-7.999l-23.96-145.006c-0.656-3.601-1.031-7.745-1.031-11.977 0-23.492 11.559-44.285 29.3-57 10.977-7.948 24.452-12.628 39.019-12.628 11.83 0 22.939 3.086 32.566 8.497l124.466 68.627c5.261 2.956 11.547 4.698 18.24 4.698s12.979-1.741 18.431-4.796l124.609-68.702c9.293-5.238 20.402-8.325 32.232-8.325 14.568 0 28.042 4.68 39.002 12.618 17.771 12.657 29.347 33.41 29.347 56.865 0 4.283-0.386 8.477-1.125 12.547l-23.936 144.854c-0.406 2.29-0.639 4.927-0.639 7.618 0 12.333 4.879 23.526 12.812 31.756zM696.96 311.040c-19.275-19.759-31.165-46.799-31.165-76.617 0-6.851 0.628-13.556 1.829-20.059l23.896-144.604c0-3.84 0-5.76-5.44-6.72l-124.8 68.8c-14.111 7.982-30.974 12.718-48.936 12.8h-0.024v495.36s2.56 0 3.52-2.88l64-132.16c14.771-31.175 43.627-53.578 78.121-59.121l140.439-21.199s2.24 0 3.52-3.52c0.625-1.001 0.996-2.217 0.996-3.52s-0.371-2.519-1.012-3.548z" />
<glyph unicode="&#xe951;" glyph-name="heading" data-tags="heading" d="M768 0h-512c-17.673 0-32 14.327-32 32v640c0 17.673 14.327 32 32 32h512c17.673 0 32-14.327 32-32v-640c0-17.673-14.327-32-32-32zM288 64h448v576h-448zM576 256h-128c-17.673 0-32 14.327-32 32s14.327 32 32 32h128c17.673 0 32-14.327 32-32s-14.327-32-32-32zM672 384h-320c-17.673 0-32 14.327-32 32s14.327 32 32 32h320c17.673 0 32-14.327 32-32s-14.327-32-32-32z" />
<glyph unicode="&#xe952;" glyph-name="logout" data-tags="logout" d="M514.88 0c-194.404 0-352 157.596-352 352s157.596 352 352 352c0.253 0.001 0.552 0.001 0.851 0.001 49.398 0 96.405-10.241 139.012-28.715 9.917-3.835 18.398-15.452 18.398-29.050 0-17.673-14.327-32-32-32-4.947 0-9.632 1.123-13.814 3.127-32.774 14.281-71.181 22.638-111.54 22.638-0.319 0-0.638-0.001-0.957-0.002-159.009 0-287.951-128.942-287.951-288s128.942-288 288-288c0.269-0.001 0.589-0.001 0.908-0.001 40.359 0 78.765 8.357 113.584 23.435 2.138 1.207 6.822 2.33 11.769 2.33 17.673 0 32-14.327 32-32 0-13.598-8.481-25.215-20.443-29.849-40.563-17.675-87.569-27.915-136.967-27.915-0.299 0-0.599 0-0.898 0.001zM688 176c-0.055 0-0.121-0.001-0.186-0.001-17.673 0-32 14.327-32 32 0 8.883 3.619 16.921 9.464 22.718l121.602 121.282-121.28 121.28c-4.783 5.559-7.695 12.847-7.695 20.815 0 17.673 14.327 32 32 32 7.968 0 15.255-2.912 20.857-7.73l143.958-143.965c5.751-5.784 9.305-13.757 9.305-22.56s-3.555-16.776-9.307-22.562l-143.998-143.998c-5.782-5.736-13.744-9.281-22.535-9.281-0.065 0-0.13 0-0.195 0.001zM832 320h-320c-17.673 0-32 14.327-32 32s14.327 32 32 32h320c17.673 0 32-14.327 32-32s-14.327-32-32-32z" />
<glyph unicode="&#xe953;" glyph-name="block" data-tags="block" d="M512 704c-195.2 0-352-156.8-352-352s156.8-352 352-352 352 156.8 352 352-156.8 352-352 352zM512 640c67.2 0 131.2-22.4 179.2-64l-403.2-403.2c-38.4 48-64 112-64 179.2 0 160 128 288 288 288zM512 64c-67.2 0-131.2 22.4-179.2 64l403.2 403.2c38.4-48 64-112 64-179.2 0-160-128-288-288-288z" />
<glyph unicode="&#xe954;" glyph-name="block-2" data-tags="block-2" d="M512 0c-41.6 0-83.2 6.4-118.4 22.4-48 16-92.8 44.8-128 83.2-6.4 6.4-9.6 12.8-9.6 22.4s3.2 16 9.6 22.4l425.6 425.6c-25.6 19.2-51.2 35.2-83.2 44.8-32 12.8-64 16-99.2 16-160 0-288-128-288-288 0-35.2 6.4-67.2 16-99.2 6.4-16-3.2-35.2-19.2-41.6s-35.2 3.2-41.6 19.2c-9.6 41.6-16 83.2-16 124.8 0 195.2 156.8 352 352 352 41.6 0 83.2-6.4 118.4-22.4 48-16 92.8-44.8 128-83.2 6.4-6.4 9.6-12.8 9.6-22.4s-3.2-16-9.6-22.4l-425.6-425.6c25.6-19.2 51.2-35.2 83.2-44.8 32-12.8 64-16 99.2-16 160 0 288 128 288 288 0 35.2-6.4 67.2-16 99.2-6.4 16 3.2 35.2 19.2 41.6s35.2-3.2 41.6-19.2c12.8-38.4 22.4-80 22.4-118.4-6.4-201.6-163.2-358.4-358.4-358.4z" />
<glyph unicode="&#xe955;" glyph-name="editor-bold" data-tags="editor-bold" horiz-adv-x="768" d="M0 864h322.56q220.16 0 320-61.952c60.422-38.751 99.888-105.572 99.888-181.61 0-5.458-0.203-10.868-0.603-16.224 0.183-2.394 0.263-6.039 0.263-9.703 0-52.403-16.367-100.983-44.268-140.907-26.547-36.502-67.288-62.458-114.205-69.734l-0.979-7.293c57.542-9.268 106.907-38.847 141.505-81.007 27.789-41.204 44.165-91.46 44.165-145.54 0-4.597-0.118-9.166-0.352-13.704 0.198-2.897 0.296-7.036 0.296-11.199 0-84.12-40.013-158.895-102.044-206.33-71.471-49.905-159.388-79.464-254.208-79.464-8.595 0-17.133 0.243-25.608 0.722l-386.41-0.053zM219.648 458.496h127.488c5.516-0.46 11.939-0.722 18.423-0.722 40.684 0 78.958 10.315 112.35 28.474 23.365 18.282 39.067 47.712 39.067 80.809 0 3.058-0.134 6.085-0.397 9.075 0.163 1.466 0.241 3.628 0.241 5.808 0 32.639-17.352 61.224-43.335 77.035-35.261 16.784-76.151 26.453-119.299 26.453-6.625 0-13.196-0.228-19.707-0.676l-114.833 0.049zM219.648 285.952v-266.752h143.36c5.060-0.426 10.952-0.668 16.9-0.668 43.626 0 84.203 13.053 118.039 35.467 25.853 22.724 42.599 56.72 42.599 94.626 0 3.463-0.14 6.894-0.414 10.286q0.029 127.042-184.291 127.042z" />
<glyph unicode="&#xe956;" glyph-name="editor-center-align" data-tags="editor-center-align" d="M768 761.6h-512c-28.277 0-51.2 22.923-51.2 51.2s22.923 51.2 51.2 51.2h512c28.277 0 51.2-22.923 51.2-51.2s-22.923-51.2-51.2-51.2zM972.8 454.4h-921.6c-28.277 0-51.2 22.923-51.2 51.2s22.923 51.2 51.2 51.2h921.6c28.277 0 51.2-22.923 51.2-51.2s-22.923-51.2-51.2-51.2zM768 147.2h-512c-28.277 0-51.2 22.923-51.2 51.2s22.923 51.2 51.2 51.2h512c28.277 0 51.2-22.923 51.2-51.2s-22.923-51.2-51.2-51.2zM972.8-160h-921.6c-28.277 0-51.2 22.923-51.2 51.2s22.923 51.2 51.2 51.2h921.6c28.277 0 51.2-22.923 51.2-51.2s-22.923-51.2-51.2-51.2z" />
<glyph unicode="&#xe957;" glyph-name="editor-hr" data-tags="editor-hr" d="M76.8 428.8h870.4c42.415 0 76.8-34.385 76.8-76.8s-34.385-76.8-76.8-76.8h-870.4c-42.415 0-76.8 34.385-76.8 76.8s34.385 76.8 76.8 76.8z" />
<glyph unicode="&#xe958;" glyph-name="editor-indent-1" data-tags="editor-indent-1" d="M409.6 864h512v-102.4h-512v102.4zM0 864h307.2v-51.2h-307.2v51.2zM0 121.6h307.2v-51.2h-307.2v51.2zM409.6 633.6h614.4v-102.4h-614.4v102.4zM409.6 172.8h563.2v-102.4h-563.2v102.4zM409.6 403.2h460.8v-102.4h-460.8v102.4zM409.6-57.6h358.4v-102.4h-358.4v102.4zM0 403.2h139.264v-51.2l167.936 116.736-167.936 117.248v-51.2h-139.264v-131.584z" />
<glyph unicode="&#xe959;" glyph-name="editor-indent-2" data-tags="editor-indent-2" d="M102.4 864h512v-102.4h-512v102.4zM716.8 864h307.2v-51.2h-307.2v51.2zM716.8 121.6h307.2v-51.2h-307.2v51.2zM0 633.6h614.4v-102.4h-614.4v102.4zM51.2 172.8h563.2v-102.4h-563.2v102.4zM153.6 403.2h460.8v-102.4h-460.8v102.4zM256-57.6h358.4v-102.4h-358.4v102.4zM1024 403.2h-139.264v-51.2l-167.936 116.736 167.936 117.248v-51.2h139.264v-131.584z" />
<glyph unicode="&#xe95a;" glyph-name="editor-italic" data-tags="editor-italic" horiz-adv-x="670" d="M453.12-160h-453.12l25.088 123.392 131.072 57.344 140.8 662.528-106.496 57.344 26.112 123.392h453.12l-26.112-123.392-131.584-57.344-142.336-662.528 109.056-57.344z" />
<glyph unicode="&#xe95b;" glyph-name="editor-justify" data-tags="editor-justify" d="M972.8 761.6h-921.6c-28.277 0-51.2 22.923-51.2 51.2s22.923 51.2 51.2 51.2h921.6c28.277 0 51.2-22.923 51.2-51.2s-22.923-51.2-51.2-51.2zM972.8 454.4h-921.6c-28.277 0-51.2 22.923-51.2 51.2s22.923 51.2 51.2 51.2h921.6c28.277 0 51.2-22.923 51.2-51.2s-22.923-51.2-51.2-51.2zM972.8 147.2h-921.6c-28.277 0-51.2 22.923-51.2 51.2s22.923 51.2 51.2 51.2h921.6c28.277 0 51.2-22.923 51.2-51.2s-22.923-51.2-51.2-51.2zM665.6-160h-614.4c-28.277 0-51.2 22.923-51.2 51.2s22.923 51.2 51.2 51.2h614.4c28.277 0 51.2-22.923 51.2-51.2s-22.923-51.2-51.2-51.2z" />
<glyph unicode="&#xe95c;" glyph-name="editor-left-align" data-tags="editor-left-align" d="M563.2 761.6h-512c-28.277 0-51.2 22.923-51.2 51.2s22.923 51.2 51.2 51.2h512c28.277 0 51.2-22.923 51.2-51.2s-22.923-51.2-51.2-51.2zM972.8 454.4h-921.6c-28.277 0-51.2 22.923-51.2 51.2s22.923 51.2 51.2 51.2h921.6c28.277 0 51.2-22.923 51.2-51.2s-22.923-51.2-51.2-51.2zM563.2 147.2h-512c-28.277 0-51.2 22.923-51.2 51.2s22.923 51.2 51.2 51.2h512c28.277 0 51.2-22.923 51.2-51.2s-22.923-51.2-51.2-51.2zM972.8-160h-921.6c-28.277 0-51.2 22.923-51.2 51.2s22.923 51.2 51.2 51.2h921.6c28.277 0 51.2-22.923 51.2-51.2s-22.923-51.2-51.2-51.2z" />
<glyph unicode="&#xe95d;" glyph-name="editor-link" data-tags="editor-link" d="M345.088 134.4c-0.557-0.022-1.211-0.034-1.867-0.034-28.277 0-51.2 22.923-51.2 51.2 0 14.229 5.805 27.103 15.175 36.382l337.412 334.852c8.68 6.991 19.839 11.221 31.987 11.221 28.277 0 51.2-22.923 51.2-51.2 0-12.019-4.142-23.071-11.076-31.807l-335.279-337.814c-8.987-7.982-20.89-12.857-33.93-12.857-0.852 0-1.699 0.021-2.54 0.062zM665.6 239.36c-28.277 0-51.2 22.923-51.2 51.2s22.923 51.2 51.2 51.2c0.132 0 0.288-0.001 0.443-0.001 45.246 0 86.195 18.398 115.774 48.122l91.655 91.655c29.744 29.744 48.142 70.836 48.142 116.224 0 90.777-73.589 164.366-164.366 164.366-45.388 0-86.48-18.397-116.224-48.142l-91.648-91.648c-29.955-29.854-48.525-71.115-48.64-116.714 0-28.299-22.923-51.222-51.2-51.222s-51.2 22.923-51.2 51.2c0 0.030 0 0.065 0 0.1 0 73.764 29.94 140.535 78.331 188.823l91.653 91.653c48.285 48.285 114.991 78.151 188.672 78.151 147.362 0 266.823-119.461 266.823-266.823 0-73.681-29.865-140.387-78.151-188.672l-91.648-91.648c-48.009-48.081-114.371-77.825-187.681-77.825-0.258 0-0.517 0-0.775 0.001zM266.752-160c-147.338 0.354-266.642 119.876-266.642 267.263 0 73.521 29.687 140.109 77.727 188.429l91.635 91.635c48.293 48.396 115.064 78.336 188.828 78.336 0.035 0 0.070 0 0.106 0h-0.006c28.277 0 51.2-22.923 51.2-51.2s-22.923-51.2-51.2-51.2c-45.631-0.055-86.911-18.639-116.728-48.632l-91.144-91.144c-29.744-29.744-48.142-70.836-48.142-116.224 0-90.777 73.589-164.366 164.366-164.366 45.388 0 86.48 18.397 116.224 48.142l91.648 91.648c29.425 29.534 47.617 70.277 47.617 115.269 0 0.156 0 0.312-0.001 0.467 0 28.253 22.923 51.176 51.2 51.176s51.2-22.923 51.2-51.2c0-0.067 0-0.147 0-0.226 0-73.563-29.95-140.131-78.321-188.175l-91.151-91.663c-48.198-48.301-114.802-78.219-188.393-78.336z" />
<glyph unicode="&#xe95e;" glyph-name="editor-list" data-tags="editor-list" d="M972.8 659.2h-563.2c-28.277 0-51.2 22.923-51.2 51.2s22.923 51.2 51.2 51.2h563.2c28.277 0 51.2-22.923 51.2-51.2s-22.923-51.2-51.2-51.2zM972.8 293.632h-563.2c-28.277 0-51.2 22.923-51.2 51.2s22.923 51.2 51.2 51.2h563.2c28.277 0 51.2-22.923 51.2-51.2s-22.923-51.2-51.2-51.2zM972.8-71.936h-563.2c-28.277 0-51.2 22.923-51.2 51.2s22.923 51.2 51.2 51.2h563.2c28.277 0 51.2-22.923 51.2-51.2s-22.923-51.2-51.2-51.2zM204.8 710.4c0-42.415-34.385-76.8-76.8-76.8s-76.8 34.385-76.8 76.8c0 42.415 34.385 76.8 76.8 76.8s76.8-34.385 76.8-76.8zM128 582.4c-70.692 0-128 57.308-128 128s57.308 128 128 128c70.692 0 128-57.308 128-128s-57.308-128-128-128zM128 736c-14.138 0-25.6-11.462-25.6-25.6s11.462-25.6 25.6-25.6c14.138 0 25.6 11.462 25.6 25.6s-11.462 25.6-25.6 25.6zM204.8 344.832c0-42.415-34.385-76.8-76.8-76.8s-76.8 34.385-76.8 76.8c0 42.415 34.385 76.8 76.8 76.8s76.8-34.385 76.8-76.8zM128 216.832c-70.692 0-128 57.308-128 128s57.308 128 128 128c70.692 0 128-57.308 128-128s-57.308-128-128-128zM128 370.432c-14.138 0-25.6-11.462-25.6-25.6s11.462-25.6 25.6-25.6c14.138 0 25.6 11.462 25.6 25.6s-11.462 25.6-25.6 25.6zM204.8-20.736c0-42.415-34.385-76.8-76.8-76.8s-76.8 34.385-76.8 76.8c0 42.415 34.385 76.8 76.8 76.8s76.8-34.385 76.8-76.8zM128-148.736c-70.692 0-128 57.308-128 128s57.308 128 128 128c70.692 0 128-57.308 128-128s-57.308-128-128-128zM128 4.864c-14.138 0-25.6-11.462-25.6-25.6s11.462-25.6 25.6-25.6c14.138 0 25.6 11.462 25.6 25.6s-11.462 25.6-25.6 25.6z" />
<glyph unicode="&#xe95f;" glyph-name="editor-numbered" data-tags="editor-numbered" horiz-adv-x="1042" d="M989.624 671.284h-572.94c-28.766 0-52.085 23.319-52.085 52.085s23.319 52.085 52.085 52.085h572.94c28.766 0 52.085-23.319 52.085-52.085s-23.319-52.085-52.085-52.085zM989.624 299.394h-572.94c-28.766 0-52.085 23.319-52.085 52.085s23.319 52.085 52.085 52.085h572.94c28.766 0 52.085-23.319 52.085-52.085s-23.319-52.085-52.085-52.085zM989.624-73.538h-572.94c-28.766 0-52.085 23.319-52.085 52.085s23.319 52.085 52.085 52.085h572.94c28.766 0 52.085-23.319 52.085-52.085s-23.319-52.085-52.085-52.085zM78.128 582.739v172.403c0 4.167 0 15.105 0 15.105l-39.064-31.251-39.064 49.481 94.796 75.524h61.461v-281.261zM4.688 210.848v52.085l83.858 90.629c5.43 5.809 10.559 12.096 15.251 18.715 4.040 5.661 7.199 11.505 9.573 17.737 2.158 5.817 3.304 11.927 3.304 18.305 0 0.16-0.001 0.319-0.002 0.479 0.050 0.452 0.079 1.005 0.079 1.564 0 4.213-1.613 8.048-4.256 10.923-3.325 2.637-7.598 4.238-12.244 4.238-0.637 0-1.267-0.030-1.888-0.089-7.958-0.051-15.489-2.168-22.027-5.842-9.056-5.12-17.081-10.988-24.341-17.673l-9.284-6.688-42.71 52.085 7.292 5.209 17.188 14.584c6.041 4.575 12.877 8.742 20.12 12.194 7.854 3.847 16.186 6.885 24.883 8.991 9.305 2.167 19.033 3.311 29.029 3.311 0.708 0 1.414-0.006 2.119-0.017 0.265 0.006 0.703 0.008 1.141 0.008 12.598 0 24.706-2.1 35.993-5.969 10.3-3.571 19.841-9.251 27.946-16.504 7.889-7.169 14.245-16.030 18.487-26.007 4.063-10.382 6.31-21.84 6.31-33.822s-2.248-23.44-6.345-33.974c-4.212-10.508-9.462-20.117-15.705-28.975-6.942-9.832-14.295-18.838-22.225-27.296l-25.916-26.948-15.626-15.626h93.233v-66.669zM86.462-160c-0.181-0.001-0.396-0.001-0.611-0.001-14.147 0-27.984 1.327-41.393 3.864-12.195 2.308-24.242 6.097-35.611 11.137l-5.2 2.189v69.274l15.105-8.334 15.105-6.771 16.146-5.209 15.626-3.125h14.584c3.285-0.459 7.081-0.721 10.938-0.721s7.653 0.262 11.37 0.769c4.159 1.058 8.177 3.043 11.616 5.733 2.251 2.030 4.040 4.657 5.099 7.63 0.365 1.932 0.551 4.005 0.551 6.121s-0.186 4.189-0.541 6.203c0.38 1.195 0.579 2.811 0.579 4.474s-0.2 3.28-0.577 4.827c-1.52 2.454-3.629 4.563-6.141 6.067-4.588 2.627-9.822 4.615-15.375 5.719-4.314 0.476-8.936 0.716-13.613 0.716s-9.299-0.24-13.853-0.708l-27.034 0.048v63.023h28.126c3.597-0.479 7.757-0.752 11.98-0.752s8.382 0.273 12.461 0.803c4.471 1.083 8.831 3.067 12.658 5.757 3.064 2.938 5.055 7.184 5.091 11.895 0.328 1.573 0.516 3.372 0.516 5.215s-0.188 3.643-0.545 5.38c0.080 0.306 0.108 0.86 0.108 1.421 0 4.73-2.034 8.985-5.274 11.938-4.655 3.066-10.348 4.884-16.465 4.884-1.177 0-2.338-0.067-3.48-0.198l-12.882 0.013-11.98-3.646-9.896-4.688-16.667-11.459-36.981 48.439 8.334 6.25c4.974 3.767 10.595 7.392 16.483 10.588 6.361 3.304 13.081 6.127 20.046 8.408 7.533 2.552 15.426 4.544 23.538 5.886 4.85 0.469 9.479 0.668 14.154 0.668s9.304-0.199 13.878-0.59c0.157 0.055 1.044 0.063 1.934 0.063 12.232 0 24.107-1.528 35.445-4.403 10.305-2.725 20.209-7.379 28.992-13.526 8.152-5.586 14.999-13.099 19.849-21.87 4.764-8.818 7.465-18.913 7.465-29.639 0-0.316-0.002-0.632-0.007-0.947 0.001-0.053 0.001-0.172 0.001-0.292 0-9.818-1.913-19.19-5.387-27.762-3.241-7.74-7.806-14.811-13.412-20.911-4.369-4.048-9.323-7.674-14.669-10.685 8.062-3.734 15.309-8.475 21.527-14.301 11.869-11.363 19.271-27.388 19.271-45.141 0-0.781-0.014-1.558-0.043-2.332 0.005-0.073 0.005-0.292 0.005-0.51 0-12.362-2.489-24.143-6.994-34.868-4.73-10.825-11.984-20.417-21.013-27.955-9.968-8.106-21.61-14.355-34.311-18.147-13.573-3.868-28.349-5.988-43.621-5.988-1.76 0-3.514 0.028-5.26 0.084z" />
<glyph unicode="&#xe960;" glyph-name="editor-paragraph" data-tags="editor-paragraph" d="M1024 864v-153.6h-281.6v-870.4h-153.6v870.4h-153.6v-870.4h-153.6v315.392c-162.228 36.505-281.6 179.349-281.6 350.075 0 0.047 0 0.094 0 0.141-0.002 0.42-0.003 0.926-0.003 1.432 0 76.205 24.163 146.767 65.246 204.441 50.255 71.587 125.959 123.917 213.956 143.869 25.448 5.577 51.951 8.556 79.132 8.649z" />
<glyph unicode="&#xe961;" glyph-name="editor-quote" data-tags="editor-quote" d="M380.416 722.688c-115.717-87.218-194.267-218.417-210.731-368.301-0.213-8.531-0.213-15.187-0.213-21.331 24.852 11.557 53.948 18.298 84.618 18.298 8.432 0 16.744-0.51 24.909-1.499 106.963-12.133 190.069-102.933 190.069-213.143 0-97.911-65.593-180.502-155.234-206.229-18.516-5.464-38.054-8.395-58.275-8.395-8.324 0-16.532 0.497-24.597 1.462-62.686 6.521-117.383 40.097-152.183 88.852-5.342 7.287-10.097 14.823-14.296 22.7-40.917 74.39-64.706 161.866-64.706 254.898 0 224.802 138.906 417.16 335.569 495.927zM935.936 722.688c-115.717-87.218-194.267-218.417-210.731-368.301-0.213-8.531-0.213-15.187-0.213-21.331 24.852 11.557 53.948 18.298 84.618 18.298 8.432 0 16.744-0.51 24.909-1.499 106.963-12.133 190.069-102.933 190.069-213.143 0-97.911-65.593-180.502-155.234-206.229-18.516-5.464-38.054-8.395-58.275-8.395-8.324 0-16.532 0.497-24.597 1.462-62.686 6.521-117.383 40.097-152.183 88.852-5.342 7.287-10.097 14.823-14.296 22.7-40.917 74.39-64.706 161.866-64.706 254.898 0 224.802 138.906 417.16 335.569 495.927z" />
<glyph unicode="&#xe962;" glyph-name="editor-redo" data-tags="editor-redo" horiz-adv-x="819" d="M781.312 643.84l-204.8 204.8c-9.328 9.457-22.284 15.315-36.608 15.315-28.393 0-51.411-23.017-51.411-51.411 0-14.069 5.652-26.819 14.808-36.102l173.050-173.050h-168.96c-280.107-0.291-507.1-227.284-507.392-507.363v-204.829c0-28.277 22.923-51.2 51.2-51.2s51.2 22.923 51.2 51.2v204.8c0.291 223.554 181.438 404.701 404.964 404.992h169.5l-173.568-173.568c-10.984-9.446-17.897-23.36-17.897-38.889 0-28.277 22.923-51.2 51.2-51.2 15.528 0 29.442 6.913 38.832 17.829l204.857 204.867c23.32 23.421 37.737 55.723 37.737 91.392s-14.417 67.971-37.741 91.396z" />
<glyph unicode="&#xe963;" glyph-name="editor-right-align" data-tags="editor-right-align" d="M972.8 761.6h-512c-28.277 0-51.2 22.923-51.2 51.2s22.923 51.2 51.2 51.2h512c28.277 0 51.2-22.923 51.2-51.2s-22.923-51.2-51.2-51.2zM972.8 454.4h-921.6c-28.277 0-51.2 22.923-51.2 51.2s22.923 51.2 51.2 51.2h921.6c28.277 0 51.2-22.923 51.2-51.2s-22.923-51.2-51.2-51.2zM972.8 147.2h-512c-28.277 0-51.2 22.923-51.2 51.2s22.923 51.2 51.2 51.2h512c28.277 0 51.2-22.923 51.2-51.2s-22.923-51.2-51.2-51.2zM972.8-160h-921.6c-28.277 0-51.2 22.923-51.2 51.2s22.923 51.2 51.2 51.2h921.6c28.277 0 51.2-22.923 51.2-51.2s-22.923-51.2-51.2-51.2z" />
<glyph unicode="&#xe964;" glyph-name="editor-strikethrough" data-tags="editor-strikethrough" d="M0 428.8h1024v-153.6h-1024v153.6zM890.368 198.4h-230.912l10.752-36.864h-311.808l9.216 36.864h-234.496l-133.12-358.4h256l47.104 140.288h417.792l47.104-140.288h256zM512 705.792l58.368-200.192h204.8l-133.632 358.4h-260.608l-133.12-358.4h204.8z" />
<glyph unicode="&#xe965;" glyph-name="editor-underline" data-tags="editor-underline" d="M921.6 864v-409.6c0.031-1.795 0.049-3.912 0.049-6.034 0-69.675-19.039-134.904-52.199-190.767-33.141-54.595-82.28-98.794-140.921-125.952-63.514-29.073-135.456-45.54-211.244-45.54-4.559 0-9.104 0.060-13.635 0.178-6.525-0.448-14.937-0.695-23.407-0.695-105.31 0-201.694 38.214-276.043 101.531-63.131 63.168-102.554 151.156-102.554 248.353 0 8.1 0.274 16.136 0.813 24.099l-0.058 404.426h209.92v-373.248c-0.634-6.758-0.996-14.614-0.996-22.555 0-55.458 17.635-106.798 47.603-148.717 34.407-33.315 82.222-54.344 134.949-54.344 6.382 0 12.691 0.308 18.915 0.91 4.9-0.665 11.502-1.009 18.185-1.009 52.568 0 100.163 21.297 134.626 55.733 29.989 41.837 47.955 94.063 47.955 150.486 0 7.403-0.309 14.734-0.916 21.98l0.064 370.764zM0-6.4h1024v-153.6h-1024v153.6z" />
<glyph unicode="&#xe966;" glyph-name="editor-undo" data-tags="editor-undo" horiz-adv-x="819" d="M311.808 603.392h-169.472l173.568 173.056c9.303 9.303 15.057 22.156 15.057 36.352 0 28.393-23.017 51.409-51.409 51.409-14.196 0-27.049-5.754-36.352-15.057l-204.8-204.8c-23.32-23.421-37.737-55.723-37.737-91.392s14.417-67.971 37.741-91.396l204.796-204.796c8.895-7.652 20.555-12.311 33.303-12.311 28.277 0 51.2 22.923 51.2 51.2 0 12.749-4.659 24.409-12.368 33.371l-172.999 171.965h169.472c223.554-0.291 404.701-181.438 404.992-404.964v-204.828c0-28.277 22.923-51.2 51.2-51.2s51.2 22.923 51.2 51.2v204.8c-0.291 280.107-227.284 507.1-507.363 507.392z" />
<glyph unicode="&#xe967;" glyph-name="editor-unlink" data-tags="editor-unlink" d="M409.6 407.808c-0.088-0.001-0.192-0.001-0.296-0.001-14.065 0-26.806 5.671-36.059 14.852l-203.773 201.725c-9.194 9.258-14.877 22.013-14.877 36.096 0 28.293 22.936 51.229 51.229 51.229 14.21 0 27.069-5.786 36.349-15.13l201.219-201.219c9.383-9.285 15.193-22.164 15.193-36.4 0-27.498-21.678-49.933-48.876-51.148zM819.2-6.4c-0.088-0.001-0.192-0.001-0.296-0.001-14.065 0-26.806 5.671-36.059 14.852l-202.237 202.237c-7.652 8.895-12.311 20.555-12.311 33.303 0 28.277 22.923 51.2 51.2 51.2 12.749 0 24.409-4.659 33.371-12.368l202.173-202.183c9.053-9.228 14.641-21.884 14.641-35.845 0-28.024-22.515-50.79-50.443-51.195zM450.56 473.344c-0.167-0.002-0.363-0.003-0.56-0.003-21.455 0-39.828 13.197-47.444 31.917l-87.163 238.423c-0.479 2.631-0.753 5.658-0.753 8.75 0 28.277 22.923 51.2 51.2 51.2 18.452 0 34.624-9.761 43.634-24.4l87.167-236.766c2.059-5.333 3.251-11.504 3.251-17.954 0-27.62-21.87-50.132-49.237-51.163zM663.040-105.728c-22.023 0.010-40.794 13.923-48.013 33.437l-89.715 244.067c-1.988 5.252-3.139 11.323-3.139 17.664 0 28.314 22.953 51.267 51.267 51.267 21.974 0 40.718-13.824 48.012-33.25l89.716-244.066c2.051-5.324 3.239-11.483 3.239-17.92 0-28.277-22.923-51.2-51.2-51.2-0.059 0-0.117 0-0.176 0zM348.16 362.24c-6.248 0.008-12.231 1.133-17.762 3.187l-242.846 88.973c-20.591 6.945-35.154 26.082-35.154 48.621 0 28.277 22.923 51.2 51.2 51.2 6.757 0 13.208-1.309 19.114-3.687l242.856-88.966c19.844-7.353 33.732-26.119 33.732-48.128 0-28.256-22.889-51.166-51.137-51.2zM921.6 153.344c-6.248 0.008-12.231 1.133-17.762 3.187l-238.238 86.413c-19.779 7.41-33.603 26.154-33.603 48.128 0 28.314 22.953 51.267 51.267 51.267 6.341 0 12.412-1.151 18.018-3.256l236.702-86.412c19.86-7.345 33.762-26.118 33.762-48.139 0-27.906-22.326-50.598-50.091-51.188zM665.6 238.848c-28.277 0-51.2 22.923-51.2 51.2s22.923 51.2 51.2 51.2h14.336c40.262 3.461 75.875 21.003 102.396 47.611l88.068 92.165c29.997 29.628 48.576 70.756 48.576 116.224s-18.579 86.596-48.559 116.208c-30.054 28.897-70.942 46.683-115.985 46.683s-85.93-17.787-116.023-46.72l-89.545-91.595c-26.613-26.525-44.155-62.138-47.574-101.789-2.608-26.845-24.551-47.178-51.242-47.178-28.404 0-51.431 23.026-51.431 51.431 0 1.713 0.084 3.406 0.247 5.076 5.941 64.896 34.563 122.382 77.784 165.141l91.672 91.159c48.138 48.397 114.779 78.349 188.416 78.349s140.277-29.952 188.404-78.337c48.409-48.15 78.361-114.791 78.361-188.428s-29.952-140.277-78.337-188.404l-91.148-91.66c-43.124-43.106-101.022-71.434-165.446-76.737zM266.752-160c-147.338 0.354-266.642 119.876-266.642 267.263 0 73.521 29.687 140.109 77.727 188.429l91.635 91.635c48.293 48.396 115.064 78.336 188.828 78.336 0.035 0 0.070 0 0.106 0h-0.006c28.277 0 51.2-22.923 51.2-51.2s-22.923-51.2-51.2-51.2c-45.631-0.055-86.911-18.639-116.728-48.632l-91.144-91.656c-29.744-29.744-48.142-70.836-48.142-116.224 0-90.777 73.589-164.366 164.366-164.366 45.388 0 86.48 18.397 116.224 48.142l91.648 91.648c29.426 29.535 47.619 70.278 47.619 115.271 0 0.335-0.001 0.67-0.003 1.004 0 28.225 22.923 51.149 51.2 51.149s51.2-22.923 51.2-51.2c0-0.067 0-0.147 0-0.226 0-73.563-29.95-140.131-78.321-188.175l-91.151-91.663c-48.198-48.301-114.802-78.219-188.393-78.336z" />
<glyph unicode="&#xe968;" glyph-name="editor-image" data-tags="editor-image" d="M977.455 864h-930.909c-25.706 0-46.545-20.839-46.545-46.545v-930.909c0-25.706 20.839-46.545 46.545-46.545h930.909c25.706 0 46.545 20.839 46.545 46.545v930.909c0 25.706-20.839 46.545-46.545 46.545zM930.909-66.909h-837.818v837.818h837.818zM186.182 119.273h651.636c25.706 0 46.545 20.839 46.545 46.545v512c0 25.706-20.839 46.545-46.545 46.545h-651.636c-25.706 0-46.545-20.839-46.545-46.545v-512c0-25.706 20.839-46.545 46.545-46.545zM232.727 339.433l128.465 117.295 168.029-186.182 49.804-58.182h-346.298zM703.302 212.364l-75.404 84.713 86.575 80.989 76.8-68.887v-96.815zM791.273 631.273v-197.353l-46.545 41.891c-8.249 7.566-19.292 12.203-31.418 12.203s-23.169-4.637-31.452-12.234l-115.864-108.42-166.633 186.182c-8.010 8.884-19.327 14.652-31.996 15.355-0.895 0.051-1.801 0.078-2.713 0.078-12.111 0-23.141-4.625-31.421-12.206l-100.503-91.663v166.167z" />
<glyph unicode="&#xe969;" glyph-name="angle-left-circle" data-tags="angle-left-circle" d="M512 704c-195.2 0-352-156.8-352-352s156.8-352 352-352 352 156.8 352 352-156.8 352-352 352zM512 64c-160 0-288 128-288 288s128 288 288 288 288-128 288-288-128-288-288-288zM598.4 489.6c12.8 12.8 12.8 32 0 44.8s-32 12.8-44.8 0l-124.8-124.8c-32-32-32-83.2 0-112l124.8-124.8c6.4-6.4 16-9.6 22.4-9.6s16 3.2 22.4 9.6c12.8 12.8 12.8 32 0 44.8l-124.8 124.8c-6.4 6.4-6.4 16 0 22.4l124.8 124.8z" />
<glyph unicode="&#xe96a;" glyph-name="angle-right-circle" data-tags="angle-right-circle" d="M512 704c-195.2 0-352-156.8-352-352s156.8-352 352-352 352 156.8 352 352-156.8 352-352 352zM512 64c-160 0-288 128-288 288s128 288 288 288 288-128 288-288-128-288-288-288zM470.4 534.4c-12.8 12.8-32 12.8-44.8 0s-12.8-32 0-44.8l124.8-124.8c6.4-6.4 6.4-16 0-22.4l-124.8-124.8c-12.8-12.8-12.8-32 0-44.8 6.4-6.4 16-9.6 22.4-9.6s16 3.2 22.4 9.6l124.8 124.8c32 32 32 83.2 0 112l-124.8 124.8z" />
<glyph unicode="&#xe96b;" glyph-name="move" data-tags="move" d="M688 112c0-35.346-28.654-64-64-64s-64 28.654-64 64c0 35.346 28.654 64 64 64s64-28.654 64-64zM688 272c0-35.346-28.654-64-64-64s-64 28.654-64 64c0 35.346 28.654 64 64 64s64-28.654 64-64zM688 432c0-35.346-28.654-64-64-64s-64 28.654-64 64c0 35.346 28.654 64 64 64s64-28.654 64-64zM688 592c0-35.346-28.654-64-64-64s-64 28.654-64 64c0 35.346 28.654 64 64 64s64-28.654 64-64zM464 112c0-35.346-28.654-64-64-64s-64 28.654-64 64c0 35.346 28.654 64 64 64s64-28.654 64-64zM464 272c0-35.346-28.654-64-64-64s-64 28.654-64 64c0 35.346 28.654 64 64 64s64-28.654 64-64zM464 432c0-35.346-28.654-64-64-64s-64 28.654-64 64c0 35.346 28.654 64 64 64s64-28.654 64-64zM464 592c0-35.346-28.654-64-64-64s-64 28.654-64 64c0 35.346 28.654 64 64 64s64-28.654 64-64z" />
<glyph unicode="&#xe96c;" glyph-name="marker" data-tags="marker" d="M646.4 460.8c0 73.6-60.8 134.4-134.4 134.4s-134.4-60.8-134.4-134.4c0-73.6 60.8-134.4 134.4-134.4s134.4 60.8 134.4 134.4zM441.6 460.8c0 38.4 32 70.4 70.4 70.4s70.4-32 70.4-70.4c0-38.4-32-70.4-70.4-70.4s-70.4 32-70.4 70.4zM643.2 214.4l70.4 96c0 0 3.2 3.2 3.2 3.2 28.8 41.6 44.8 89.6 44.8 140.8 0 73.6-32 144-89.6 192s-134.4 67.2-208 51.2c-99.2-19.2-176-96-195.2-195.2-12.8-67.2 0-134.4 38.4-192 0 0 0-3.2 3.2-3.2l70.4-96c-70.4-9.6-156.8-38.4-156.8-99.2 0-89.6 182.4-112 288-112s288 22.4 288 112c0 60.8-86.4 89.6-156.8 102.4zM358.4 345.6c-28.8 41.6-41.6 92.8-28.8 144 16 73.6 73.6 131.2 144 144 57.6 9.6 112-3.2 156.8-38.4s67.2-89.6 67.2-144c0-38.4-12.8-76.8-35.2-108.8 0 0 0 0 0-3.2l-131.2-172.8c-9.6-12.8-32-12.8-41.6 0l-131.2 179.2c3.2 0 0 0 0 0zM512 64c-134.4 0-211.2 32-224 48 6.4 9.6 48 32 134.4 41.6l16-22.4c16-22.4 44.8-35.2 73.6-35.2s54.4 12.8 73.6 35.2l16 22.4c86.4-9.6 124.8-32 134.4-41.6-12.8-16-89.6-48-224-48z" />
<glyph unicode="&#xe96d;" glyph-name="time" data-tags="time" d="M505.6 598.4c-166.4 0-304-137.6-304-304s137.6-304 304-304 304 137.6 304 304-137.6 304-304 304zM505.6 54.4c-131.2 0-240 108.8-240 240s108.8 240 240 240 240-108.8 240-240-108.8-240-240-240zM566.4 262.4c0 6.4 3.2 9.6 3.2 16 0 22.4-12.8 44.8-32 54.4v137.6c0 19.2-12.8 32-32 32s-32-12.8-32-32v-137.6c-19.2-9.6-32-32-32-54.4 0-35.2 28.8-64 64-64 6.4 0 9.6 0 16 3.2l64-64c6.4-6.4 16-9.6 22.4-9.6s16 3.2 22.4 9.6c12.8 12.8 12.8 32 0 44.8l-64 64zM464 614.4h96c25.6 0 48 22.4 48 48s-22.4 48-48 48h-96c-25.6 0-48-22.4-48-48s22.4-48 48-48zM812.8 540.8l-67.2 67.2c-12.8 12.8-32 12.8-44.8 0s-12.8-32 0-44.8l70.4-67.2c6.4-6.4 12.8-9.6 22.4-9.6s16 3.2 22.4 9.6c9.6 12.8 9.6 35.2-3.2 44.8z" />
<glyph unicode="&#xe96e;" glyph-name="grid-1" data-tags="grid-1" d="M736 704h-448c-70.4 0-128-57.6-128-128v-448c0-70.4 57.6-128 128-128h448c70.4 0 128 57.6 128 128v448c0 70.4-57.6 128-128 128zM800 128c0-35.2-28.8-64-64-64h-448c-35.2 0-64 28.8-64 64v448c0 35.2 28.8 64 64 64h448c35.2 0 64-28.8 64-64v-448zM448 576h-128c-19.2 0-32-12.8-32-32v-128c0-19.2 12.8-32 32-32h128c19.2 0 32 12.8 32 32v128c0 19.2-12.8 32-32 32zM416 448h-64v64h64v-64zM704 576h-128c-19.2 0-32-12.8-32-32v-128c0-19.2 12.8-32 32-32h128c19.2 0 32 12.8 32 32v128c0 19.2-12.8 32-32 32zM672 448h-64v64h64v-64zM448 320h-128c-19.2 0-32-12.8-32-32v-128c0-19.2 12.8-32 32-32h128c19.2 0 32 12.8 32 32v128c0 19.2-12.8 32-32 32zM416 192h-64v64h64v-64zM704 320h-128c-19.2 0-32-12.8-32-32v-128c0-19.2 12.8-32 32-32h128c19.2 0 32 12.8 32 32v128c0 19.2-12.8 32-32 32zM672 192h-64v64h64v-64z" />
<glyph unicode="&#xe96f;" glyph-name="list-2" data-tags="list-2" d="M736 704h-448c-70.4 0-128-57.6-128-128v-448c0-70.4 57.6-128 128-128h448c70.4 0 128 57.6 128 128v448c0 70.4-57.6 128-128 128zM800 128c0-35.2-28.8-64-64-64h-448c-35.2 0-64 28.8-64 64v448c0 35.2 28.8 64 64 64h448c35.2 0 64-28.8 64-64v-448zM704 544h-256c-19.2 0-32-12.8-32-32s12.8-32 32-32h256c19.2 0 32 12.8 32 32s-12.8 32-32 32zM352 544h-32c-19.2 0-32-12.8-32-32s12.8-32 32-32h32c19.2 0 32 12.8 32 32s-12.8 32-32 32zM704 384h-256c-19.2 0-32-12.8-32-32s12.8-32 32-32h256c19.2 0 32 12.8 32 32s-12.8 32-32 32zM352 384h-32c-19.2 0-32-12.8-32-32s12.8-32 32-32h32c19.2 0 32 12.8 32 32s-12.8 32-32 32zM704 224h-256c-19.2 0-32-12.8-32-32s12.8-32 32-32h256c19.2 0 32 12.8 32 32s-12.8 32-32 32zM352 224h-32c-19.2 0-32-12.8-32-32s12.8-32 32-32h32c19.2 0 32 12.8 32 32s-12.8 32-32 32z" />
<glyph unicode="&#xe970;" glyph-name="blackberry" data-tags="socmed_blackberry" d="M265.6 460.8h102.4c32 0 60.8 25.6 60.8 60.8s-25.6 60.8-60.8 60.8h-70.4c-9.6 0-16-3.2-19.2-12.8l-32-80c-3.2-6.4-3.2-12.8 3.2-19.2 3.2-6.4 9.6-9.6 16-9.6zM374.4 352c0 32-25.6 60.8-60.8 60.8h-70.4c-9.6 0-16-6.4-19.2-12.8l-32-80c0-6.4 0-12.8 3.2-19.2s9.6-9.6 16-9.6h102.4c32 0 60.8 28.8 60.8 60.8zM476.8 243.2h-67.2c-9.6 0-16-6.4-19.2-12.8l-32-80c-3.2-6.4-3.2-12.8 3.2-19.2 3.2-6.4 9.6-9.6 16-9.6h102.4c32 0 60.8 25.6 60.8 60.8-3.2 32-32 60.8-64 60.8zM528 412.8h-67.2c-9.6 0-16-6.4-19.2-12.8l-32-80c-3.2-6.4-3.2-12.8 3.2-19.2 3.2-6.4 9.6-9.6 16-9.6h102.4c32 0 60.8 25.6 60.8 60.8s-28.8 60.8-64 60.8zM480 460.8h102.4c32 0 60.8 25.6 60.8 60.8s-25.6 60.8-60.8 60.8h-70.4c-9.6 0-16-6.4-19.2-12.8l-32-80c-3.2-6.4-3.2-12.8 3.2-19.2 3.2-6.4 9.6-9.6 16-9.6zM720 348.8h-67.2c-9.6 0-16-6.4-19.2-12.8l-32-80c-3.2-6.4-3.2-12.8 3.2-19.2 3.2-6.4 9.6-9.6 16-9.6h102.4c32 0 60.8 25.6 60.8 60.8-3.2 32-32 60.8-64 60.8zM771.2 518.4h-67.2c-9.6 0-16-6.4-19.2-12.8l-32-80c-3.2-6.4-3.2-12.8 3.2-19.2 3.2-6.4 9.6-9.6 16-9.6h102.4c32 0 60.8 25.6 60.8 60.8-3.2 35.2-28.8 60.8-64 60.8z" />
<glyph unicode="&#xe971;" glyph-name="fb" data-tags="socmed_fb" d="M560 32v291.2h99.2l16 115.2h-112v73.6c0 32 9.6 54.4 57.6 54.4h60.8v102.4c-9.6 0-44.8 3.2-86.4 3.2-86.4 0-147.2-54.4-147.2-150.4v-83.2h-99.2v-115.2h99.2v-291.2h112z" />
<glyph unicode="&#xe972;" glyph-name="gplus" data-tags="socmed_gplus" d="M192 364.8c3.2 124.8 118.4 236.8 243.2 233.6 60.8 3.2 118.4-22.4 163.2-60.8-19.2-22.4-41.6-44.8-60.8-64-54.4 38.4-134.4 48-192 6.4-80-54.4-83.2-185.6-6.4-243.2 73.6-67.2 214.4-35.2 236.8 70.4-48 0-92.8 0-140.8 0 0 28.8 0 54.4 0 83.2 76.8 0 156.8 0 233.6 0 3.2-64-3.2-134.4-44.8-188.8-60.8-86.4-182.4-112-278.4-73.6-92.8 32-160 134.4-153.6 236.8zM745.6 438.4c19.2 0 9.6 0 28.8 0 0-19.2 0-38.4 0-57.6 19.2 0 38.4 0 57.6 0 0-19.2 0-9.6 0-28.8-19.2 0-38.4 0-57.6 0 0-19.2 0-38.4 0-57.6-19.2 0-9.6 0-28.8 0 0 19.2 0 38.4 0 57.6-19.2 0-38.4 0-57.6 0 0 19.2 0 9.6 0 28.8 19.2 0 38.4 0 57.6 0 0 19.2 0 38.4 0 57.6z" />
<glyph unicode="&#xe973;" glyph-name="ig" data-tags="socmed_ig" d="M512 614.4c86.4 0 96 0 128-3.2 32 0 48-6.4 60.8-9.6 16-6.4 25.6-12.8 35.2-25.6 9.6-9.6 19.2-22.4 22.4-35.2s9.6-28.8 9.6-60.8c0-35.2 3.2-44.8 3.2-128s0-96-3.2-128c0-32-6.4-48-9.6-60.8-6.4-16-12.8-25.6-22.4-35.2s-22.4-19.2-35.2-22.4c-12.8-3.2-28.8-9.6-60.8-9.6-35.2 0-44.8-3.2-128-3.2s-96 0-128 3.2c-32 0-48 6.4-60.8 9.6-16 3.2-25.6 9.6-35.2 22.4-9.6 9.6-19.2 22.4-22.4 35.2-6.4 12.8-12.8 28.8-12.8 60.8 0 35.2-3.2 44.8-3.2 128s0 96 3.2 128c0 32 6.4 48 9.6 60.8 6.4 16 12.8 25.6 25.6 35.2 9.6 9.6 22.4 19.2 35.2 22.4 12.8 6.4 28.8 12.8 60.8 12.8 32 3.2 41.6 3.2 128 3.2zM512 672c-86.4 0-99.2 0-131.2-3.2-35.2 0-57.6-6.4-76.8-16-22.4-6.4-41.6-16-57.6-35.2-19.2-16-28.8-35.2-38.4-54.4-6.4-19.2-12.8-44.8-16-76.8 0-35.2 0-48 0-134.4s0-99.2 3.2-131.2c0-35.2 6.4-57.6 16-76.8 9.6-22.4 19.2-38.4 38.4-57.6s35.2-28.8 57.6-38.4c19.2-6.4 44.8-12.8 76.8-16 35.2 0 44.8-3.2 131.2-3.2s99.2 0 131.2 3.2c35.2 0 57.6 6.4 76.8 16 22.4 9.6 38.4 19.2 57.6 38.4s28.8 35.2 38.4 57.6c6.4 19.2 12.8 44.8 16 76.8 0 35.2 3.2 44.8 3.2 131.2s0 99.2-3.2 131.2c0 35.2-6.4 57.6-16 76.8-9.6 22.4-19.2 38.4-38.4 57.6s-35.2 28.8-57.6 38.4c-19.2 6.4-44.8 12.8-76.8 16-35.2 0-48 0-134.4 0v0zM512 515.2c-89.6 0-163.2-73.6-163.2-163.2s73.6-163.2 163.2-163.2 163.2 73.6 163.2 163.2c0 89.6-73.6 163.2-163.2 163.2zM512 246.4c-57.6 0-105.6 48-105.6 105.6s48 105.6 105.6 105.6c57.6 0 105.6-48 105.6-105.6s-48-105.6-105.6-105.6zM720 521.6c0-21.208-17.192-38.4-38.4-38.4s-38.4 17.192-38.4 38.4c0 21.208 17.192 38.4 38.4 38.4s38.4-17.192 38.4-38.4z" />
</font>
</defs>
</svg>
